<svg xmlns="http://www.w3.org/2000/svg" xmlns:xlink="http://www.w3.org/1999/xlink" width="70" zoomAndPan="magnify" viewBox="0 0 52.5 52.499999" height="70" preserveAspectRatio="xMidYMid meet" version="1.0"><defs><clipPath id="5f04f6800a"><path d="M 1.121094 0 L 50.621094 0 L 50.621094 52.003906 L 1.121094 52.003906 Z M 1.121094 0 " clip-rule="nonzero"/></clipPath><clipPath id="cdcc0cb2eb"><path d="M 25 0 L 50.621094 0 L 50.621094 52.003906 L 25 52.003906 Z M 25 0 " clip-rule="nonzero"/></clipPath></defs><g clip-path="url(#5f04f6800a)"><path fill="#e23237" d="M 1.179688 8.703125 L 25.542969 0 L 50.5625 8.546875 L 46.511719 40.867188 L 25.542969 52.507812 L 4.90625 41.019531 Z M 1.179688 8.703125 " fill-opacity="1" fill-rule="nonzero"/></g><g clip-path="url(#cdcc0cb2eb)"><path fill="#b52e31" d="M 50.5625 8.546875 L 25.542969 0 L 25.542969 52.507812 L 46.511719 40.882812 Z M 50.5625 8.546875 " fill-opacity="1" fill-rule="nonzero"/></g><path fill="#ffffff" d="M 25.582031 6.128906 L 10.402344 39.996094 L 16.074219 39.898438 L 19.121094 32.261719 L 32.738281 32.261719 L 36.078125 39.996094 L 41.496094 40.09375 L 25.582031 6.128906 L 25.582031 6.132812 Z M 25.621094 16.980469 L 30.75 27.734375 L 21.109375 27.734375 Z M 25.621094 16.980469 " fill-opacity="1" fill-rule="nonzero"/></svg>