<svg xmlns="http://www.w3.org/2000/svg" xmlns:xlink="http://www.w3.org/1999/xlink" width="70" zoomAndPan="magnify" viewBox="0 0 52.5 52.499999" height="70" preserveAspectRatio="xMidYMid meet" version="1.0"><defs><clipPath id="eac36e6edc"><path d="M 2.363281 0 L 49.613281 0 L 49.613281 52.003906 L 2.363281 52.003906 Z M 2.363281 0 " clip-rule="nonzero"/></clipPath><clipPath id="52b9bb3629"><path d="M 2.363281 0 L 49 0 L 49 40 L 2.363281 40 Z M 2.363281 0 " clip-rule="nonzero"/></clipPath><clipPath id="61c1870324"><path d="M 25 12 L 49.613281 12 L 49.613281 40 L 25 40 Z M 25 12 " clip-rule="nonzero"/></clipPath></defs><g clip-path="url(#eac36e6edc)"><path fill="#37474f" d="M 24.628906 0.480469 C 25.46875 0.0078125 26.503906 0.0078125 27.34375 0.480469 C 31.496094 2.824219 43.988281 9.875 48.140625 12.21875 C 48.980469 12.691406 49.496094 13.566406 49.496094 14.511719 C 49.496094 19.199219 49.496094 33.300781 49.496094 37.984375 C 49.496094 38.933594 48.980469 39.808594 48.140625 40.28125 C 43.988281 42.625 31.496094 49.675781 27.34375 52.019531 C 26.503906 52.492188 25.46875 52.492188 24.628906 52.019531 C 20.480469 49.675781 7.988281 42.625 3.835938 40.28125 C 2.996094 39.808594 2.476562 38.933594 2.476562 37.988281 C 2.476562 33.300781 2.476562 19.199219 2.476562 14.515625 C 2.476562 13.566406 2.996094 12.691406 3.835938 12.21875 C 7.984375 9.875 20.480469 2.824219 24.628906 0.480469 Z M 24.628906 0.480469 " fill-opacity="1" fill-rule="evenodd"/></g><g clip-path="url(#52b9bb3629)"><path fill="#546e7a" d="M 2.855469 39.191406 C 2.523438 38.75 2.476562 38.328125 2.476562 37.765625 C 2.476562 33.105469 2.476562 19.085938 2.476562 14.425781 C 2.476562 13.484375 2.996094 12.613281 3.832031 12.140625 C 7.96875 9.8125 20.417969 2.804688 24.554688 0.472656 C 25.390625 0 26.527344 0.0117188 27.363281 0.484375 C 31.5 2.8125 43.910156 9.761719 48.046875 12.089844 C 48.378906 12.28125 48.632812 12.507812 48.863281 12.808594 Z M 2.855469 39.191406 " fill-opacity="1" fill-rule="evenodd"/></g><path fill="#ffffff" d="M 25.988281 8.832031 C 35.546875 8.832031 43.308594 16.636719 43.308594 26.25 C 43.308594 35.863281 35.546875 43.667969 25.988281 43.667969 C 16.425781 43.667969 8.664062 35.863281 8.664062 26.25 C 8.664062 16.636719 16.425781 8.832031 25.988281 8.832031 Z M 25.988281 17.542969 C 30.765625 17.542969 34.648438 21.441406 34.648438 26.25 C 34.648438 31.054688 30.765625 34.957031 25.988281 34.957031 C 21.207031 34.957031 17.328125 31.054688 17.328125 26.25 C 17.328125 21.441406 21.207031 17.542969 25.988281 17.542969 Z M 25.988281 17.542969 " fill-opacity="1" fill-rule="evenodd"/><g clip-path="url(#61c1870324)"><path fill="#455a64" d="M 48.859375 12.820312 C 49.496094 13.421875 49.484375 14.328125 49.484375 15.039062 C 49.484375 19.761719 49.445312 33.1875 49.496094 37.910156 C 49.5 38.402344 49.339844 38.921875 49.097656 39.3125 L 25.484375 26.25 Z M 48.859375 12.820312 " fill-opacity="1" fill-rule="evenodd"/></g><path fill="#ffffff" d="M 38.359375 21.273438 L 39.597656 21.273438 L 39.597656 31.226562 L 38.359375 31.226562 Z M 42.074219 21.273438 L 43.308594 21.273438 L 43.308594 31.226562 L 42.074219 31.226562 Z M 42.074219 21.273438 " fill-opacity="1" fill-rule="evenodd"/><path fill="#ffffff" d="M 35.886719 27.492188 L 45.785156 27.492188 L 45.785156 28.738281 L 35.886719 28.738281 Z M 35.886719 23.761719 L 45.785156 23.761719 L 45.785156 25.007812 L 35.886719 25.007812 Z M 35.886719 23.761719 " fill-opacity="1" fill-rule="evenodd"/></svg>