<svg xmlns="http://www.w3.org/2000/svg" xmlns:xlink="http://www.w3.org/1999/xlink" width="70" zoomAndPan="magnify" viewBox="0 0 52.5 52.499999" height="70" preserveAspectRatio="xMidYMid meet" version="1.0"><defs><clipPath id="12d5254a4d"><path d="M 7.636719 10 L 45.136719 10 L 45.136719 52.003906 L 7.636719 52.003906 Z M 7.636719 10 " clip-rule="nonzero"/></clipPath></defs><g clip-path="url(#12d5254a4d)"><path fill="#264de4" d="M 26.371094 52.5 L 11.066406 48.28125 L 7.65625 10.316406 L 45.128906 10.316406 L 41.71875 48.277344 L 26.371094 52.496094 Z M 26.371094 52.5 " fill-opacity="1" fill-rule="nonzero"/></g><path fill="#2965f1" d="M 38.792969 45.859375 L 41.710938 13.421875 L 26.394531 13.421875 L 26.394531 49.269531 Z M 38.792969 45.859375 " fill-opacity="1" fill-rule="nonzero"/><path fill="#ebebeb" d="M 15.476562 27.503906 L 15.894531 32.15625 L 26.394531 32.15625 L 26.394531 27.503906 Z M 15.476562 27.503906 " fill-opacity="1" fill-rule="nonzero"/><path fill="#ebebeb" d="M 14.628906 18.078125 L 15.054688 22.734375 L 26.394531 22.734375 L 26.394531 18.078125 Z M 14.628906 18.078125 " fill-opacity="1" fill-rule="nonzero"/><path fill="#ebebeb" d="M 26.394531 39.59375 L 26.375 39.601562 L 21.148438 38.199219 L 20.8125 34.484375 L 16.105469 34.484375 L 16.761719 41.796875 L 26.371094 44.445312 L 26.394531 44.4375 Z M 26.394531 39.59375 " fill-opacity="1" fill-rule="nonzero"/><path fill="#000000" d="M 16.476562 0 L 22.15625 0 L 22.15625 2.359375 L 18.851562 2.359375 L 18.851562 4.714844 L 22.15625 4.714844 L 22.15625 7.074219 L 16.476562 7.074219 Z M 16.476562 0 " fill-opacity="1" fill-rule="nonzero"/><path fill="#000000" d="M 23.292969 0 L 28.976562 0 L 28.976562 2.050781 L 25.671875 2.050781 L 25.671875 2.460938 L 28.976562 2.460938 L 28.976562 7.175781 L 23.292969 7.175781 L 23.292969 5.023438 L 26.601562 5.023438 L 26.601562 4.613281 L 23.292969 4.613281 Z M 23.292969 0 " fill-opacity="1" fill-rule="nonzero"/><path fill="#000000" d="M 30.113281 0 L 35.796875 0 L 35.796875 2.050781 L 32.488281 2.050781 L 32.488281 2.460938 L 35.796875 2.460938 L 35.796875 7.175781 L 30.113281 7.175781 L 30.113281 5.023438 L 33.417969 5.023438 L 33.417969 4.613281 L 30.113281 4.613281 Z M 30.113281 0 " fill-opacity="1" fill-rule="nonzero"/><path fill="#ffffff" d="M 37.28125 27.503906 L 38.128906 18.078125 L 26.378906 18.078125 L 26.378906 22.734375 L 32.988281 22.734375 L 32.5625 27.503906 L 26.378906 27.503906 L 26.378906 32.15625 L 32.15625 32.15625 L 31.609375 38.195312 L 26.378906 39.597656 L 26.378906 44.441406 L 35.996094 41.796875 L 36.066406 41.011719 L 37.167969 28.75 Z M 37.28125 27.503906 " fill-opacity="1" fill-rule="nonzero"/></svg>