<svg xmlns="http://www.w3.org/2000/svg" xmlns:xlink="http://www.w3.org/1999/xlink" width="70" zoomAndPan="magnify" viewBox="0 0 52.5 52.499999" height="70" preserveAspectRatio="xMidYMid meet" version="1.0"><defs><clipPath id="a39b33f4d7"><path d="M 7.636719 10 L 45.136719 10 L 45.136719 52.003906 L 7.636719 52.003906 Z M 7.636719 10 " clip-rule="nonzero"/></clipPath></defs><g clip-path="url(#a39b33f4d7)"><path fill="#e44d26" d="M 45.128906 10.316406 L 41.714844 48.277344 L 26.371094 52.496094 L 11.066406 48.28125 L 7.65625 10.316406 Z M 45.128906 10.316406 " fill-opacity="1" fill-rule="nonzero"/></g><path fill="#f16529" d="M 26.394531 49.269531 L 38.792969 45.859375 L 41.710938 13.421875 L 26.394531 13.421875 Z M 26.394531 49.269531 " fill-opacity="1" fill-rule="nonzero"/><path fill="#ebebeb" d="M 19.757812 22.734375 L 26.394531 22.734375 L 26.394531 18.078125 L 14.628906 18.078125 L 14.742188 19.328125 L 15.894531 32.15625 L 26.394531 32.15625 L 26.394531 27.503906 L 20.1875 27.503906 Z M 19.757812 22.734375 " fill-opacity="1" fill-rule="nonzero"/><path fill="#ebebeb" d="M 20.8125 34.484375 L 16.105469 34.484375 L 16.761719 41.796875 L 26.371094 44.445312 L 26.394531 44.4375 L 26.394531 39.59375 L 26.375 39.601562 L 21.148438 38.199219 Z M 20.8125 34.484375 " fill-opacity="1" fill-rule="nonzero"/><path fill="#000000" d="M 11.144531 0 L 13.527344 0 L 13.527344 2.335938 L 15.707031 2.335938 L 15.707031 0 L 18.09375 0 L 18.09375 7.078125 L 15.707031 7.078125 L 15.707031 4.707031 L 13.527344 4.707031 L 13.527344 7.078125 L 11.144531 7.078125 Z M 11.144531 0 " fill-opacity="1" fill-rule="nonzero"/><path fill="#000000" d="M 21.226562 2.347656 L 19.128906 2.347656 L 19.128906 0 L 25.710938 0 L 25.710938 2.347656 L 23.613281 2.347656 L 23.613281 7.078125 L 21.226562 7.078125 Z M 21.226562 2.347656 " fill-opacity="1" fill-rule="nonzero"/><path fill="#000000" d="M 26.757812 0 L 29.242188 0 L 30.769531 2.488281 L 32.300781 0 L 34.785156 0 L 34.785156 7.078125 L 32.410156 7.078125 L 32.410156 3.570312 L 30.769531 6.085938 L 30.730469 6.085938 L 29.089844 3.570312 L 29.089844 7.078125 L 26.757812 7.078125 Z M 26.757812 0 " fill-opacity="1" fill-rule="nonzero"/><path fill="#000000" d="M 35.972656 0 L 38.355469 0 L 38.355469 4.738281 L 41.710938 4.738281 L 41.710938 7.078125 L 35.972656 7.078125 Z M 35.972656 0 " fill-opacity="1" fill-rule="nonzero"/><path fill="#ffffff" d="M 26.378906 32.15625 L 32.15625 32.15625 L 31.609375 38.195312 L 26.378906 39.597656 L 26.378906 44.441406 L 35.996094 41.796875 L 36.066406 41.011719 L 37.167969 28.75 L 37.28125 27.503906 L 26.378906 27.503906 Z M 26.378906 32.15625 " fill-opacity="1" fill-rule="nonzero"/><path fill="#ffffff" d="M 26.378906 22.722656 L 26.378906 22.734375 L 37.710938 22.734375 L 37.804688 21.6875 L 38.015625 19.328125 L 38.128906 18.078125 L 26.378906 18.078125 Z M 26.378906 22.722656 " fill-opacity="1" fill-rule="nonzero"/></svg>