<svg xmlns="http://www.w3.org/2000/svg" xmlns:xlink="http://www.w3.org/1999/xlink" width="70" zoomAndPan="magnify" viewBox="0 0 52.5 52.499999" height="70" preserveAspectRatio="xMidYMid meet" version="1.0"><defs><clipPath id="329f8270e9"><path d="M 0 0 L 52.003906 0 L 52.003906 52.003906 L 0 52.003906 Z M 0 0 " clip-rule="nonzero"/></clipPath></defs><g clip-path="url(#329f8270e9)"><path fill="#ffd600" d="M 0 0 L 52.5 0 L 52.5 52.5 L 0 52.5 Z M 0 0 " fill-opacity="1" fill-rule="nonzero"/></g><path fill="#000001" d="M 34.328125 39.296875 C 35.335938 40.9375 36.433594 42.507812 38.753906 42.507812 C 40.707031 42.507812 41.730469 41.539062 41.730469 40.195312 C 41.730469 38.589844 40.671875 38.019531 38.523438 37.085938 L 37.347656 36.582031 C 33.953125 35.144531 31.691406 33.335938 31.691406 29.523438 C 31.691406 26.007812 34.382812 23.335938 38.585938 23.335938 C 41.582031 23.335938 43.734375 24.371094 45.285156 27.085938 L 41.617188 29.429688 C 40.8125 27.988281 39.9375 27.421875 38.585938 27.421875 C 37.207031 27.421875 36.335938 28.292969 36.335938 29.429688 C 36.335938 30.835938 37.210938 31.40625 39.230469 32.277344 L 40.40625 32.777344 C 44.410156 34.480469 46.667969 36.222656 46.667969 40.136719 C 46.667969 44.355469 43.335938 46.667969 38.863281 46.667969 C 34.492188 46.667969 32.007812 44.472656 30.625 41.753906 Z M 17.429688 39.417969 C 18.167969 40.738281 19.289062 41.753906 20.902344 41.753906 C 22.445312 41.753906 23.332031 41.144531 23.332031 38.777344 L 23.332031 23.332031 L 28.195312 23.332031 L 28.195312 39.523438 C 28.195312 44.433594 25.347656 46.667969 21.1875 46.667969 C 17.429688 46.667969 14.714844 44.121094 13.609375 41.753906 Z M 17.429688 39.417969 " fill-opacity="1" fill-rule="nonzero"/></svg>