<svg xmlns="http://www.w3.org/2000/svg" xmlns:xlink="http://www.w3.org/1999/xlink" width="70" zoomAndPan="magnify" viewBox="0 0 52.5 52.499999" height="70" preserveAspectRatio="xMidYMid meet" version="1.0"><defs><clipPath id="6a7f816767"><path d="M 3.851562 0.652344 L 48.851562 0.652344 L 48.851562 51.652344 L 3.851562 51.652344 Z M 3.851562 0.652344 " clip-rule="nonzero"/></clipPath></defs><g clip-path="url(#6a7f816767)"><path fill="#8cc03e" d="M 20.835938 45.363281 C 19.519531 46.117188 19.269531 46.207031 18.035156 46.640625 C 17.738281 46.742188 17.285156 46.921875 18.207031 47.445312 L 24.394531 51.125 C 24.984375 51.46875 25.667969 51.648438 26.339844 51.648438 L 26.34375 51.652344 C 27.027344 51.652344 27.699219 51.472656 28.289062 51.128906 L 46.816406 40.386719 C 48.019531 39.679688 48.761719 38.378906 48.761719 36.988281 L 48.761719 15.515625 C 48.761719 14.113281 48.023438 12.8125 46.816406 12.117188 L 28.289062 1.363281 C 27.125 0.699219 25.570312 0.699219 24.398438 1.363281 L 5.890625 12.105469 C 4.691406 12.804688 3.945312 14.113281 3.945312 15.503906 L 3.945312 36.976562 C 3.945312 38.378906 4.6875 39.679688 5.890625 40.375 L 10.746094 43.1875 C 13.09375 44.355469 13.933594 44.355469 15.007812 44.355469 C 18.488281 44.355469 20.492188 42.242188 20.492188 38.550781 L 20.492188 17.339844 C 20.492188 17.039062 20.242188 16.808594 19.953125 16.808594 L 17.605469 16.808594 C 17.304688 16.808594 17.0625 17.039062 17.0625 17.339844 L 17.0625 38.542969 C 17.0625 40.183594 15.375 41.808594 12.617188 40.425781 L 7.542969 37.484375 C 7.367188 37.394531 7.253906 37.191406 7.253906 36.988281 L 7.253906 15.515625 C 7.253906 15.304688 7.367188 15.101562 7.542969 15 L 26.050781 4.253906 C 26.21875 4.152344 26.453125 4.152344 26.621094 4.253906 L 45.140625 14.988281 C 45.316406 15.097656 45.429688 15.292969 45.429688 15.503906 L 45.429688 36.988281 C 45.429688 37.1875 45.320312 37.390625 45.148438 37.492188 L 26.621094 48.238281 C 26.460938 48.339844 26.222656 48.339844 26.050781 48.238281 L 21.296875 45.40625 C 21.15625 45.3125 20.976562 45.28125 20.835938 45.363281 Z M 20.835938 45.363281 " fill-opacity="1" fill-rule="nonzero"/></g><path fill="#8cc03e" d="M 32.058594 33.601562 C 27.15625 33.601562 26.082031 32.359375 25.722656 29.914062 C 25.679688 29.648438 25.460938 29.460938 25.191406 29.460938 L 22.792969 29.460938 C 22.492188 29.460938 22.261719 29.699219 22.261719 29.992188 C 22.261719 33.125 23.957031 36.867188 32.070312 36.867188 C 37.925781 36.855469 41.300781 34.53125 41.300781 30.476562 L 41.292969 30.480469 C 41.292969 26.457031 38.585938 25.390625 32.898438 24.632812 C 27.140625 23.867188 26.558594 23.476562 26.558594 22.125 C 26.558594 21.007812 27.054688 19.515625 31.316406 19.515625 C 35.117188 19.515625 36.523438 20.339844 37.101562 22.921875 C 37.152344 23.164062 37.375 23.34375 37.625 23.34375 L 40.03125 23.34375 C 40.179688 23.34375 40.324219 23.285156 40.421875 23.171875 C 40.523438 23.058594 40.570312 22.910156 40.5625 22.757812 C 40.191406 18.316406 37.253906 16.25 31.316406 16.25 C 26.027344 16.25 22.878906 18.488281 22.878906 22.246094 C 22.878906 26.316406 26.019531 27.445312 31.085938 27.949219 C 37.152344 28.546875 37.621094 29.441406 37.621094 30.640625 C 37.628906 32.714844 35.960938 33.601562 32.058594 33.601562 Z M 32.058594 33.601562 " fill-opacity="1" fill-rule="nonzero"/></svg>