<svg xmlns="http://www.w3.org/2000/svg" xmlns:xlink="http://www.w3.org/1999/xlink" width="70" zoomAndPan="magnify" viewBox="0 0 52.5 52.499999" height="70" preserveAspectRatio="xMidYMid meet" version="1.0"><defs><clipPath id="30b63eb125"><path d="M 0 13.429688 L 52.003906 13.429688 L 52.003906 41.179688 L 0 41.179688 Z M 0 13.429688 " clip-rule="nonzero"/></clipPath><clipPath id="9f1e00012e"><path d="M 52.5 27.304688 C 52.5 27.757812 52.457031 28.207031 52.375 28.660156 C 52.289062 29.109375 52.164062 29.558594 51.996094 30.003906 C 51.828125 30.449219 51.621094 30.886719 51.371094 31.320312 C 51.121094 31.753906 50.832031 32.179688 50.5 32.597656 C 50.171875 33.015625 49.804688 33.425781 49.402344 33.824219 C 48.996094 34.226562 48.554688 34.613281 48.074219 34.992188 C 47.597656 35.367188 47.085938 35.730469 46.542969 36.082031 C 45.996094 36.433594 45.417969 36.765625 44.8125 37.085938 C 44.203125 37.40625 43.566406 37.710938 42.902344 38 C 42.238281 38.285156 41.546875 38.554688 40.832031 38.808594 C 40.117188 39.058594 39.382812 39.292969 38.625 39.507812 C 37.867188 39.71875 37.089844 39.914062 36.296875 40.085938 C 35.5 40.261719 34.691406 40.414062 33.871094 40.542969 C 33.046875 40.675781 32.214844 40.785156 31.371094 40.875 C 30.527344 40.960938 29.679688 41.027344 28.824219 41.074219 C 27.96875 41.117188 27.109375 41.140625 26.25 41.140625 C 25.390625 41.140625 24.53125 41.117188 23.675781 41.074219 C 22.820312 41.027344 21.972656 40.960938 21.128906 40.875 C 20.285156 40.785156 19.453125 40.675781 18.628906 40.542969 C 17.808594 40.414062 17 40.261719 16.203125 40.085938 C 15.410156 39.914062 14.632812 39.71875 13.875 39.507812 C 13.117188 39.292969 12.382812 39.058594 11.667969 38.808594 C 10.953125 38.554688 10.261719 38.285156 9.597656 38 C 8.933594 37.710938 8.296875 37.40625 7.6875 37.085938 C 7.082031 36.765625 6.503906 36.433594 5.957031 36.082031 C 5.414062 35.730469 4.902344 35.367188 4.425781 34.992188 C 3.945312 34.613281 3.503906 34.226562 3.097656 33.824219 C 2.695312 33.425781 2.328125 33.015625 2 32.597656 C 1.667969 32.179688 1.378906 31.753906 1.128906 31.320312 C 0.878906 30.886719 0.671875 30.449219 0.503906 30.003906 C 0.335938 29.558594 0.210938 29.109375 0.125 28.660156 C 0.0429688 28.207031 0 27.757812 0 27.304688 C 0 26.851562 0.0429688 26.398438 0.125 25.949219 C 0.210938 25.496094 0.335938 25.046875 0.503906 24.605469 C 0.671875 24.160156 0.878906 23.71875 1.128906 23.285156 C 1.378906 22.851562 1.667969 22.425781 2 22.007812 C 2.328125 21.589844 2.695312 21.179688 3.097656 20.78125 C 3.503906 20.382812 3.945312 19.992188 4.425781 19.617188 C 4.902344 19.238281 5.414062 18.875 5.957031 18.527344 C 6.503906 18.175781 7.082031 17.839844 7.6875 17.519531 C 8.296875 17.199219 8.933594 16.894531 9.597656 16.609375 C 10.261719 16.320312 10.953125 16.050781 11.667969 15.796875 C 12.382812 15.546875 13.117188 15.3125 13.875 15.101562 C 14.632812 14.886719 15.410156 14.695312 16.203125 14.519531 C 17 14.347656 17.808594 14.195312 18.628906 14.0625 C 19.453125 13.929688 20.285156 13.820312 21.128906 13.734375 C 21.972656 13.644531 22.820312 13.578125 23.675781 13.535156 C 24.53125 13.488281 25.390625 13.464844 26.25 13.464844 C 27.109375 13.464844 27.96875 13.488281 28.824219 13.535156 C 29.679688 13.578125 30.527344 13.644531 31.371094 13.734375 C 32.214844 13.820312 33.046875 13.929688 33.871094 14.0625 C 34.691406 14.195312 35.5 14.347656 36.296875 14.519531 C 37.089844 14.695312 37.867188 14.886719 38.625 15.101562 C 39.382812 15.3125 40.117188 15.546875 40.832031 15.796875 C 41.546875 16.050781 42.238281 16.320312 42.902344 16.609375 C 43.566406 16.894531 44.203125 17.199219 44.8125 17.519531 C 45.417969 17.839844 45.996094 18.175781 46.542969 18.527344 C 47.085938 18.875 47.597656 19.238281 48.074219 19.617188 C 48.554688 19.992188 48.996094 20.382812 49.402344 20.78125 C 49.804688 21.179688 50.171875 21.589844 50.5 22.007812 C 50.832031 22.425781 51.121094 22.851562 51.371094 23.285156 C 51.621094 23.71875 51.828125 24.160156 51.996094 24.605469 C 52.164062 25.046875 52.289062 25.496094 52.375 25.949219 C 52.457031 26.398438 52.5 26.851562 52.5 27.304688 Z M 52.5 27.304688 " clip-rule="nonzero"/></clipPath><radialGradient gradientTransform="matrix(0.998731, 0, 0, 1.001269, 15.681092, 30.308966)" gradientUnits="userSpaceOnUse" r="34.516755" cx="0.079537" id="b9b4ebae37" cy="-11.960979" fx="0.079537" fy="-11.960979"><stop stop-opacity="1" stop-color="rgb(99.725342%, 99.772644%, 99.839783%)" offset="0"/><stop stop-opacity="1" stop-color="rgb(99.176025%, 99.319458%, 99.520874%)" offset="0.00390625"/><stop stop-opacity="1" stop-color="rgb(98.628235%, 98.866272%, 99.201965%)" offset="0.0078125"/><stop stop-opacity="1" stop-color="rgb(98.078918%, 98.413086%, 98.883057%)" offset="0.0117188"/><stop stop-opacity="1" stop-color="rgb(97.531128%, 97.9599%, 98.564148%)" offset="0.015625"/><stop stop-opacity="1" stop-color="rgb(96.981812%, 97.506714%, 98.245239%)" offset="0.0195312"/><stop stop-opacity="1" stop-color="rgb(96.434021%, 97.053528%, 97.926331%)" offset="0.0234375"/><stop stop-opacity="1" stop-color="rgb(95.88623%, 96.600342%, 97.607422%)" offset="0.0273438"/><stop stop-opacity="1" stop-color="rgb(95.336914%, 96.147156%, 97.288513%)" offset="0.03125"/><stop stop-opacity="1" stop-color="rgb(94.789124%, 95.69397%, 96.97113%)" offset="0.0351562"/><stop stop-opacity="1" stop-color="rgb(94.239807%, 95.240784%, 96.652222%)" offset="0.0390625"/><stop stop-opacity="1" stop-color="rgb(93.692017%, 94.787598%, 96.333313%)" offset="0.0429688"/><stop stop-opacity="1" stop-color="rgb(93.1427%, 94.334412%, 96.014404%)" offset="0.046875"/><stop stop-opacity="1" stop-color="rgb(92.59491%, 93.881226%, 95.695496%)" offset="0.0507812"/><stop stop-opacity="1" stop-color="rgb(92.047119%, 93.42804%, 95.376587%)" offset="0.0546875"/><stop stop-opacity="1" stop-color="rgb(91.497803%, 92.974854%, 95.057678%)" offset="0.0585938"/><stop stop-opacity="1" stop-color="rgb(90.950012%, 92.521667%, 94.73877%)" offset="0.0625"/><stop stop-opacity="1" stop-color="rgb(90.400696%, 92.068481%, 94.419861%)" offset="0.0664062"/><stop stop-opacity="1" stop-color="rgb(89.852905%, 91.615295%, 94.100952%)" offset="0.0703125"/><stop stop-opacity="1" stop-color="rgb(89.303589%, 91.162109%, 93.783569%)" offset="0.0742188"/><stop stop-opacity="1" stop-color="rgb(88.755798%, 90.708923%, 93.464661%)" offset="0.078125"/><stop stop-opacity="1" stop-color="rgb(88.208008%, 90.255737%, 93.145752%)" offset="0.0820312"/><stop stop-opacity="1" stop-color="rgb(87.658691%, 89.802551%, 92.826843%)" offset="0.0859375"/><stop stop-opacity="1" stop-color="rgb(87.110901%, 89.349365%, 92.507935%)" offset="0.0898438"/><stop stop-opacity="1" stop-color="rgb(86.561584%, 88.897705%, 92.189026%)" offset="0.09375"/><stop stop-opacity="1" stop-color="rgb(86.013794%, 88.444519%, 91.870117%)" offset="0.0976562"/><stop stop-opacity="1" stop-color="rgb(85.464478%, 87.991333%, 91.551208%)" offset="0.101562"/><stop stop-opacity="1" stop-color="rgb(84.916687%, 87.538147%, 91.2323%)" offset="0.105469"/><stop stop-opacity="1" stop-color="rgb(84.368896%, 87.084961%, 90.914917%)" offset="0.109375"/><stop stop-opacity="1" stop-color="rgb(83.81958%, 86.631775%, 90.596008%)" offset="0.113281"/><stop stop-opacity="1" stop-color="rgb(83.27179%, 86.178589%, 90.2771%)" offset="0.117188"/><stop stop-opacity="1" stop-color="rgb(82.722473%, 85.725403%, 89.958191%)" offset="0.121094"/><stop stop-opacity="1" stop-color="rgb(82.174683%, 85.272217%, 89.639282%)" offset="0.125"/><stop stop-opacity="1" stop-color="rgb(81.626892%, 84.819031%, 89.320374%)" offset="0.128906"/><stop stop-opacity="1" stop-color="rgb(81.077576%, 84.365845%, 89.001465%)" offset="0.132812"/><stop stop-opacity="1" stop-color="rgb(80.529785%, 83.912659%, 88.682556%)" offset="0.136719"/><stop stop-opacity="1" stop-color="rgb(79.980469%, 83.459473%, 88.363647%)" offset="0.140625"/><stop stop-opacity="1" stop-color="rgb(79.432678%, 83.006287%, 88.044739%)" offset="0.144531"/><stop stop-opacity="1" stop-color="rgb(78.883362%, 82.553101%, 87.727356%)" offset="0.148438"/><stop stop-opacity="1" stop-color="rgb(78.335571%, 82.099915%, 87.408447%)" offset="0.152344"/><stop stop-opacity="1" stop-color="rgb(77.787781%, 81.646729%, 87.089539%)" offset="0.15625"/><stop stop-opacity="1" stop-color="rgb(77.238464%, 81.193542%, 86.77063%)" offset="0.160156"/><stop stop-opacity="1" stop-color="rgb(76.690674%, 80.740356%, 86.451721%)" offset="0.164062"/><stop stop-opacity="1" stop-color="rgb(76.141357%, 80.28717%, 86.132812%)" offset="0.167969"/><stop stop-opacity="1" stop-color="rgb(75.593567%, 79.833984%, 85.813904%)" offset="0.171875"/><stop stop-opacity="1" stop-color="rgb(75.04425%, 79.380798%, 85.494995%)" offset="0.175781"/><stop stop-opacity="1" stop-color="rgb(74.49646%, 78.927612%, 85.176086%)" offset="0.179688"/><stop stop-opacity="1" stop-color="rgb(73.948669%, 78.474426%, 84.857178%)" offset="0.183594"/><stop stop-opacity="1" stop-color="rgb(73.399353%, 78.02124%, 84.539795%)" offset="0.1875"/><stop stop-opacity="1" stop-color="rgb(72.851562%, 77.56958%, 84.220886%)" offset="0.191406"/><stop stop-opacity="1" stop-color="rgb(72.302246%, 77.116394%, 83.901978%)" offset="0.195312"/><stop stop-opacity="1" stop-color="rgb(71.754456%, 76.663208%, 83.583069%)" offset="0.199219"/><stop stop-opacity="1" stop-color="rgb(71.205139%, 76.210022%, 83.26416%)" offset="0.203125"/><stop stop-opacity="1" stop-color="rgb(70.657349%, 75.756836%, 82.945251%)" offset="0.207031"/><stop stop-opacity="1" stop-color="rgb(70.109558%, 75.30365%, 82.626343%)" offset="0.210938"/><stop stop-opacity="1" stop-color="rgb(69.560242%, 74.850464%, 82.307434%)" offset="0.214844"/><stop stop-opacity="1" stop-color="rgb(69.012451%, 74.397278%, 81.988525%)" offset="0.21875"/><stop stop-opacity="1" stop-color="rgb(68.463135%, 73.944092%, 81.671143%)" offset="0.222656"/><stop stop-opacity="1" stop-color="rgb(67.915344%, 73.490906%, 81.352234%)" offset="0.226562"/><stop stop-opacity="1" stop-color="rgb(67.366028%, 73.03772%, 81.033325%)" offset="0.230469"/><stop stop-opacity="1" stop-color="rgb(66.818237%, 72.584534%, 80.714417%)" offset="0.234375"/><stop stop-opacity="1" stop-color="rgb(66.270447%, 72.131348%, 80.395508%)" offset="0.238281"/><stop stop-opacity="1" stop-color="rgb(65.72113%, 71.678162%, 80.076599%)" offset="0.242188"/><stop stop-opacity="1" stop-color="rgb(65.17334%, 71.224976%, 79.75769%)" offset="0.246094"/><stop stop-opacity="1" stop-color="rgb(64.624023%, 70.77179%, 79.438782%)" offset="0.25"/><stop stop-opacity="1" stop-color="rgb(64.076233%, 70.318604%, 79.119873%)" offset="0.253906"/><stop stop-opacity="1" stop-color="rgb(63.528442%, 69.865417%, 78.800964%)" offset="0.257812"/><stop stop-opacity="1" stop-color="rgb(62.979126%, 69.412231%, 78.483582%)" offset="0.261719"/><stop stop-opacity="1" stop-color="rgb(62.431335%, 68.959045%, 78.164673%)" offset="0.265625"/><stop stop-opacity="1" stop-color="rgb(61.882019%, 68.505859%, 77.845764%)" offset="0.269531"/><stop stop-opacity="1" stop-color="rgb(61.334229%, 68.052673%, 77.526855%)" offset="0.273438"/><stop stop-opacity="1" stop-color="rgb(60.784912%, 67.599487%, 77.207947%)" offset="0.277344"/><stop stop-opacity="1" stop-color="rgb(60.237122%, 67.146301%, 76.889038%)" offset="0.28125"/><stop stop-opacity="1" stop-color="rgb(59.689331%, 66.693115%, 76.570129%)" offset="0.285156"/><stop stop-opacity="1" stop-color="rgb(59.140015%, 66.241455%, 76.251221%)" offset="0.289062"/><stop stop-opacity="1" stop-color="rgb(58.592224%, 65.788269%, 75.932312%)" offset="0.292969"/><stop stop-opacity="1" stop-color="rgb(58.042908%, 65.335083%, 75.614929%)" offset="0.296875"/><stop stop-opacity="1" stop-color="rgb(57.495117%, 64.881897%, 75.296021%)" offset="0.300781"/><stop stop-opacity="1" stop-color="rgb(56.945801%, 64.428711%, 74.977112%)" offset="0.304688"/><stop stop-opacity="1" stop-color="rgb(56.39801%, 63.975525%, 74.658203%)" offset="0.308594"/><stop stop-opacity="1" stop-color="rgb(55.85022%, 63.522339%, 74.339294%)" offset="0.3125"/><stop stop-opacity="1" stop-color="rgb(55.300903%, 63.069153%, 74.020386%)" offset="0.316406"/><stop stop-opacity="1" stop-color="rgb(54.753113%, 62.615967%, 73.701477%)" offset="0.320312"/><stop stop-opacity="1" stop-color="rgb(54.203796%, 62.162781%, 73.382568%)" offset="0.324219"/><stop stop-opacity="1" stop-color="rgb(53.656006%, 61.709595%, 73.06366%)" offset="0.328125"/><stop stop-opacity="1" stop-color="rgb(53.106689%, 61.256409%, 72.744751%)" offset="0.332031"/><stop stop-opacity="1" stop-color="rgb(52.558899%, 60.803223%, 72.427368%)" offset="0.335938"/><stop stop-opacity="1" stop-color="rgb(52.011108%, 60.350037%, 72.108459%)" offset="0.339844"/><stop stop-opacity="1" stop-color="rgb(51.461792%, 59.896851%, 71.789551%)" offset="0.34375"/><stop stop-opacity="1" stop-color="rgb(50.914001%, 59.443665%, 71.470642%)" offset="0.347656"/><stop stop-opacity="1" stop-color="rgb(50.364685%, 58.990479%, 71.151733%)" offset="0.351562"/><stop stop-opacity="1" stop-color="rgb(49.816895%, 58.537292%, 70.832825%)" offset="0.355469"/><stop stop-opacity="1" stop-color="rgb(49.267578%, 58.084106%, 70.513916%)" offset="0.359375"/><stop stop-opacity="1" stop-color="rgb(48.719788%, 57.63092%, 70.195007%)" offset="0.363281"/><stop stop-opacity="1" stop-color="rgb(48.171997%, 57.177734%, 69.876099%)" offset="0.367188"/><stop stop-opacity="1" stop-color="rgb(47.622681%, 56.724548%, 69.55719%)" offset="0.371094"/><stop stop-opacity="1" stop-color="rgb(47.07489%, 56.271362%, 69.239807%)" offset="0.375"/><stop stop-opacity="1" stop-color="rgb(46.525574%, 55.818176%, 68.920898%)" offset="0.378906"/><stop stop-opacity="1" stop-color="rgb(45.977783%, 55.36499%, 68.60199%)" offset="0.382812"/><stop stop-opacity="1" stop-color="rgb(45.429993%, 54.91333%, 68.283081%)" offset="0.386719"/><stop stop-opacity="1" stop-color="rgb(44.880676%, 54.460144%, 67.964172%)" offset="0.390625"/><stop stop-opacity="1" stop-color="rgb(44.332886%, 54.006958%, 67.645264%)" offset="0.394531"/><stop stop-opacity="1" stop-color="rgb(43.783569%, 53.553772%, 67.326355%)" offset="0.398438"/><stop stop-opacity="1" stop-color="rgb(43.235779%, 53.100586%, 67.007446%)" offset="0.402344"/><stop stop-opacity="1" stop-color="rgb(42.686462%, 52.6474%, 66.688538%)" offset="0.40625"/><stop stop-opacity="1" stop-color="rgb(42.138672%, 52.194214%, 66.371155%)" offset="0.410156"/><stop stop-opacity="1" stop-color="rgb(41.590881%, 51.741028%, 66.052246%)" offset="0.414062"/><stop stop-opacity="1" stop-color="rgb(41.041565%, 51.287842%, 65.733337%)" offset="0.417969"/><stop stop-opacity="1" stop-color="rgb(40.493774%, 50.834656%, 65.414429%)" offset="0.421875"/><stop stop-opacity="1" stop-color="rgb(39.944458%, 50.38147%, 65.09552%)" offset="0.425781"/><stop stop-opacity="1" stop-color="rgb(39.396667%, 49.928284%, 64.776611%)" offset="0.429688"/><stop stop-opacity="1" stop-color="rgb(38.847351%, 49.475098%, 64.457703%)" offset="0.433594"/><stop stop-opacity="1" stop-color="rgb(38.299561%, 49.021912%, 64.138794%)" offset="0.4375"/><stop stop-opacity="1" stop-color="rgb(37.75177%, 48.568726%, 63.819885%)" offset="0.441406"/><stop stop-opacity="1" stop-color="rgb(37.202454%, 48.11554%, 63.500977%)" offset="0.445312"/><stop stop-opacity="1" stop-color="rgb(36.654663%, 47.662354%, 63.183594%)" offset="0.449219"/><stop stop-opacity="1" stop-color="rgb(36.105347%, 47.209167%, 62.864685%)" offset="0.453125"/><stop stop-opacity="1" stop-color="rgb(35.557556%, 46.755981%, 62.545776%)" offset="0.457031"/><stop stop-opacity="1" stop-color="rgb(35.00824%, 46.302795%, 62.226868%)" offset="0.460938"/><stop stop-opacity="1" stop-color="rgb(34.460449%, 45.849609%, 61.907959%)" offset="0.464844"/><stop stop-opacity="1" stop-color="rgb(33.912659%, 45.396423%, 61.58905%)" offset="0.46875"/><stop stop-opacity="1" stop-color="rgb(33.363342%, 44.943237%, 61.270142%)" offset="0.472656"/><stop stop-opacity="1" stop-color="rgb(32.815552%, 44.490051%, 60.951233%)" offset="0.476562"/><stop stop-opacity="1" stop-color="rgb(32.266235%, 44.036865%, 60.632324%)" offset="0.480469"/><stop stop-opacity="1" stop-color="rgb(31.718445%, 43.585205%, 60.314941%)" offset="0.484375"/><stop stop-opacity="1" stop-color="rgb(31.170654%, 43.132019%, 59.996033%)" offset="0.488281"/><stop stop-opacity="1" stop-color="rgb(30.621338%, 42.678833%, 59.677124%)" offset="0.492188"/><stop stop-opacity="1" stop-color="rgb(30.073547%, 42.225647%, 59.358215%)" offset="0.496094"/><stop stop-opacity="1" stop-color="rgb(29.736328%, 41.882324%, 59.016418%)" offset="0.5"/><stop stop-opacity="1" stop-color="rgb(29.60968%, 41.648865%, 58.651733%)" offset="0.503906"/><stop stop-opacity="1" stop-color="rgb(29.484558%, 41.416931%, 58.287048%)" offset="0.507812"/><stop stop-opacity="1" stop-color="rgb(29.359436%, 41.183472%, 57.922363%)" offset="0.511719"/><stop stop-opacity="1" stop-color="rgb(29.232788%, 40.951538%, 57.556152%)" offset="0.515625"/><stop stop-opacity="1" stop-color="rgb(29.107666%, 40.718079%, 57.191467%)" offset="0.519531"/><stop stop-opacity="1" stop-color="rgb(28.981018%, 40.486145%, 56.826782%)" offset="0.523438"/><stop stop-opacity="1" stop-color="rgb(28.855896%, 40.252686%, 56.462097%)" offset="0.527344"/><stop stop-opacity="1" stop-color="rgb(28.729248%, 40.019226%, 56.097412%)" offset="0.53125"/><stop stop-opacity="1" stop-color="rgb(28.604126%, 39.787292%, 55.732727%)" offset="0.535156"/><stop stop-opacity="1" stop-color="rgb(28.477478%, 39.553833%, 55.368042%)" offset="0.539062"/><stop stop-opacity="1" stop-color="rgb(28.352356%, 39.321899%, 55.003357%)" offset="0.542969"/><stop stop-opacity="1" stop-color="rgb(28.227234%, 39.08844%, 54.638672%)" offset="0.546875"/><stop stop-opacity="1" stop-color="rgb(28.100586%, 38.856506%, 54.272461%)" offset="0.550781"/><stop stop-opacity="1" stop-color="rgb(27.975464%, 38.623047%, 53.907776%)" offset="0.554688"/><stop stop-opacity="1" stop-color="rgb(27.848816%, 38.389587%, 53.543091%)" offset="0.558594"/><stop stop-opacity="1" stop-color="rgb(27.723694%, 38.157654%, 53.178406%)" offset="0.5625"/><stop stop-opacity="1" stop-color="rgb(27.597046%, 37.924194%, 52.813721%)" offset="0.566406"/><stop stop-opacity="1" stop-color="rgb(27.471924%, 37.692261%, 52.449036%)" offset="0.570312"/><stop stop-opacity="1" stop-color="rgb(27.346802%, 37.458801%, 52.084351%)" offset="0.574219"/><stop stop-opacity="1" stop-color="rgb(27.220154%, 37.226868%, 51.719666%)" offset="0.578125"/><stop stop-opacity="1" stop-color="rgb(27.095032%, 36.993408%, 51.35498%)" offset="0.582031"/><stop stop-opacity="1" stop-color="rgb(26.968384%, 36.759949%, 50.990295%)" offset="0.585938"/><stop stop-opacity="1" stop-color="rgb(26.843262%, 36.528015%, 50.624084%)" offset="0.589844"/><stop stop-opacity="1" stop-color="rgb(26.716614%, 36.294556%, 50.259399%)" offset="0.59375"/><stop stop-opacity="1" stop-color="rgb(26.591492%, 36.062622%, 49.894714%)" offset="0.597656"/><stop stop-opacity="1" stop-color="rgb(26.46637%, 35.829163%, 49.530029%)" offset="0.601562"/><stop stop-opacity="1" stop-color="rgb(26.339722%, 35.595703%, 49.165344%)" offset="0.605469"/><stop stop-opacity="1" stop-color="rgb(26.2146%, 35.36377%, 48.800659%)" offset="0.609375"/><stop stop-opacity="1" stop-color="rgb(26.087952%, 35.13031%, 48.435974%)" offset="0.613281"/><stop stop-opacity="1" stop-color="rgb(25.96283%, 34.898376%, 48.071289%)" offset="0.617188"/><stop stop-opacity="1" stop-color="rgb(25.836182%, 34.664917%, 47.706604%)" offset="0.621094"/><stop stop-opacity="1" stop-color="rgb(25.71106%, 34.432983%, 47.340393%)" offset="0.625"/><stop stop-opacity="1" stop-color="rgb(25.585938%, 34.199524%, 46.975708%)" offset="0.628906"/><stop stop-opacity="1" stop-color="rgb(25.45929%, 33.966064%, 46.611023%)" offset="0.632812"/><stop stop-opacity="1" stop-color="rgb(25.334167%, 33.734131%, 46.246338%)" offset="0.636719"/><stop stop-opacity="1" stop-color="rgb(25.20752%, 33.500671%, 45.881653%)" offset="0.640625"/><stop stop-opacity="1" stop-color="rgb(25.082397%, 33.268738%, 45.516968%)" offset="0.644531"/><stop stop-opacity="1" stop-color="rgb(24.95575%, 33.035278%, 45.152283%)" offset="0.648438"/><stop stop-opacity="1" stop-color="rgb(24.830627%, 32.803345%, 44.787598%)" offset="0.652344"/><stop stop-opacity="1" stop-color="rgb(24.705505%, 32.569885%, 44.422913%)" offset="0.65625"/><stop stop-opacity="1" stop-color="rgb(24.578857%, 32.336426%, 44.058228%)" offset="0.660156"/><stop stop-opacity="1" stop-color="rgb(24.453735%, 32.104492%, 43.692017%)" offset="0.664062"/><stop stop-opacity="1" stop-color="rgb(24.327087%, 31.871033%, 43.327332%)" offset="0.667969"/><stop stop-opacity="1" stop-color="rgb(24.201965%, 31.639099%, 42.962646%)" offset="0.671875"/><stop stop-opacity="1" stop-color="rgb(24.075317%, 31.40564%, 42.597961%)" offset="0.675781"/><stop stop-opacity="1" stop-color="rgb(23.950195%, 31.173706%, 42.233276%)" offset="0.679688"/><stop stop-opacity="1" stop-color="rgb(23.823547%, 30.940247%, 41.868591%)" offset="0.683594"/><stop stop-opacity="1" stop-color="rgb(23.698425%, 30.706787%, 41.503906%)" offset="0.6875"/><stop stop-opacity="1" stop-color="rgb(23.573303%, 30.474854%, 41.139221%)" offset="0.691406"/><stop stop-opacity="1" stop-color="rgb(23.446655%, 30.241394%, 40.774536%)" offset="0.695312"/><stop stop-opacity="1" stop-color="rgb(23.321533%, 30.00946%, 40.409851%)" offset="0.699219"/><stop stop-opacity="1" stop-color="rgb(23.194885%, 29.776001%, 40.04364%)" offset="0.703125"/><stop stop-opacity="1" stop-color="rgb(23.069763%, 29.544067%, 39.678955%)" offset="0.707031"/><stop stop-opacity="1" stop-color="rgb(22.943115%, 29.310608%, 39.31427%)" offset="0.710938"/><stop stop-opacity="1" stop-color="rgb(22.817993%, 29.077148%, 38.949585%)" offset="0.714844"/><stop stop-opacity="1" stop-color="rgb(22.692871%, 28.845215%, 38.5849%)" offset="0.71875"/><stop stop-opacity="1" stop-color="rgb(22.566223%, 28.611755%, 38.220215%)" offset="0.722656"/><stop stop-opacity="1" stop-color="rgb(22.441101%, 28.379822%, 37.85553%)" offset="0.726562"/><stop stop-opacity="1" stop-color="rgb(22.314453%, 28.146362%, 37.490845%)" offset="0.730469"/><stop stop-opacity="1" stop-color="rgb(22.189331%, 27.912903%, 37.12616%)" offset="0.734375"/><stop stop-opacity="1" stop-color="rgb(22.062683%, 27.680969%, 36.759949%)" offset="0.738281"/><stop stop-opacity="1" stop-color="rgb(21.937561%, 27.44751%, 36.395264%)" offset="0.742188"/><stop stop-opacity="1" stop-color="rgb(21.812439%, 27.215576%, 36.030579%)" offset="0.746094"/><stop stop-opacity="1" stop-color="rgb(21.685791%, 26.982117%, 35.665894%)" offset="0.75"/><stop stop-opacity="1" stop-color="rgb(21.560669%, 26.750183%, 35.301208%)" offset="0.753906"/><stop stop-opacity="1" stop-color="rgb(21.434021%, 26.516724%, 34.936523%)" offset="0.757812"/><stop stop-opacity="1" stop-color="rgb(21.308899%, 26.283264%, 34.571838%)" offset="0.761719"/><stop stop-opacity="1" stop-color="rgb(21.182251%, 26.051331%, 34.207153%)" offset="0.765625"/><stop stop-opacity="1" stop-color="rgb(21.057129%, 25.817871%, 33.842468%)" offset="0.769531"/><stop stop-opacity="1" stop-color="rgb(20.932007%, 25.585938%, 33.477783%)" offset="0.773438"/><stop stop-opacity="1" stop-color="rgb(20.805359%, 25.352478%, 33.111572%)" offset="0.777344"/><stop stop-opacity="1" stop-color="rgb(20.680237%, 25.120544%, 32.746887%)" offset="0.78125"/><stop stop-opacity="1" stop-color="rgb(20.553589%, 24.887085%, 32.382202%)" offset="0.785156"/><stop stop-opacity="1" stop-color="rgb(20.428467%, 24.653625%, 32.017517%)" offset="0.789062"/><stop stop-opacity="1" stop-color="rgb(20.301819%, 24.421692%, 31.652832%)" offset="0.792969"/><stop stop-opacity="1" stop-color="rgb(20.176697%, 24.188232%, 31.288147%)" offset="0.796875"/><stop stop-opacity="1" stop-color="rgb(20.051575%, 23.956299%, 30.923462%)" offset="0.800781"/><stop stop-opacity="1" stop-color="rgb(19.924927%, 23.722839%, 30.558777%)" offset="0.804688"/><stop stop-opacity="1" stop-color="rgb(19.799805%, 23.490906%, 30.194092%)" offset="0.808594"/><stop stop-opacity="1" stop-color="rgb(19.673157%, 23.257446%, 29.827881%)" offset="0.8125"/><stop stop-opacity="1" stop-color="rgb(19.548035%, 23.023987%, 29.463196%)" offset="0.816406"/><stop stop-opacity="1" stop-color="rgb(19.421387%, 22.792053%, 29.098511%)" offset="0.820312"/><stop stop-opacity="1" stop-color="rgb(19.296265%, 22.558594%, 28.733826%)" offset="0.824219"/><stop stop-opacity="1" stop-color="rgb(19.171143%, 22.32666%, 28.369141%)" offset="0.828125"/><stop stop-opacity="1" stop-color="rgb(19.044495%, 22.093201%, 28.004456%)" offset="0.832031"/><stop stop-opacity="1" stop-color="rgb(18.919373%, 21.861267%, 27.639771%)" offset="0.835938"/><stop stop-opacity="1" stop-color="rgb(18.792725%, 21.627808%, 27.275085%)" offset="0.839844"/><stop stop-opacity="1" stop-color="rgb(18.667603%, 21.394348%, 26.9104%)" offset="0.84375"/><stop stop-opacity="1" stop-color="rgb(18.540955%, 21.162415%, 26.545715%)" offset="0.847656"/><stop stop-opacity="1" stop-color="rgb(18.415833%, 20.928955%, 26.179504%)" offset="0.851562"/><stop stop-opacity="1" stop-color="rgb(18.289185%, 20.697021%, 25.814819%)" offset="0.855469"/><stop stop-opacity="1" stop-color="rgb(18.164062%, 20.463562%, 25.450134%)" offset="0.859375"/><stop stop-opacity="1" stop-color="rgb(18.03894%, 20.230103%, 25.085449%)" offset="0.863281"/><stop stop-opacity="1" stop-color="rgb(17.912292%, 19.998169%, 24.720764%)" offset="0.867188"/><stop stop-opacity="1" stop-color="rgb(17.78717%, 19.764709%, 24.356079%)" offset="0.871094"/><stop stop-opacity="1" stop-color="rgb(17.660522%, 19.532776%, 23.991394%)" offset="0.875"/><stop stop-opacity="1" stop-color="rgb(17.5354%, 19.299316%, 23.626709%)" offset="0.878906"/><stop stop-opacity="1" stop-color="rgb(17.408752%, 19.067383%, 23.262024%)" offset="0.882812"/><stop stop-opacity="1" stop-color="rgb(17.28363%, 18.833923%, 22.897339%)" offset="0.886719"/><stop stop-opacity="1" stop-color="rgb(17.158508%, 18.600464%, 22.531128%)" offset="0.890625"/><stop stop-opacity="1" stop-color="rgb(17.03186%, 18.36853%, 22.166443%)" offset="0.894531"/><stop stop-opacity="1" stop-color="rgb(16.906738%, 18.135071%, 21.801758%)" offset="0.898438"/><stop stop-opacity="1" stop-color="rgb(16.78009%, 17.903137%, 21.437073%)" offset="0.902344"/><stop stop-opacity="1" stop-color="rgb(16.654968%, 17.669678%, 21.072388%)" offset="0.90625"/><stop stop-opacity="1" stop-color="rgb(16.52832%, 17.437744%, 20.707703%)" offset="0.910156"/><stop stop-opacity="1" stop-color="rgb(16.403198%, 17.204285%, 20.343018%)" offset="0.914062"/><stop stop-opacity="1" stop-color="rgb(16.278076%, 16.970825%, 19.978333%)" offset="0.917969"/><stop stop-opacity="1" stop-color="rgb(16.151428%, 16.738892%, 19.613647%)" offset="0.921875"/><stop stop-opacity="1" stop-color="rgb(16.026306%, 16.505432%, 19.247437%)" offset="0.925781"/><stop stop-opacity="1" stop-color="rgb(15.899658%, 16.273499%, 18.882751%)" offset="0.929688"/><stop stop-opacity="1" stop-color="rgb(15.774536%, 16.040039%, 18.518066%)" offset="0.933594"/><stop stop-opacity="1" stop-color="rgb(15.647888%, 15.808105%, 18.153381%)" offset="0.9375"/><stop stop-opacity="1" stop-color="rgb(15.522766%, 15.574646%, 17.788696%)" offset="0.941406"/><stop stop-opacity="1" stop-color="rgb(15.397644%, 15.341187%, 17.424011%)" offset="0.945312"/><stop stop-opacity="1" stop-color="rgb(15.270996%, 15.109253%, 17.059326%)" offset="0.949219"/><stop stop-opacity="1" stop-color="rgb(15.145874%, 14.875793%, 16.694641%)" offset="0.953125"/><stop stop-opacity="1" stop-color="rgb(15.019226%, 14.64386%, 16.329956%)" offset="0.957031"/><stop stop-opacity="1" stop-color="rgb(14.894104%, 14.4104%, 15.965271%)" offset="0.960938"/><stop stop-opacity="1" stop-color="rgb(14.767456%, 14.178467%, 15.59906%)" offset="0.964844"/><stop stop-opacity="1" stop-color="rgb(14.642334%, 13.945007%, 15.234375%)" offset="0.96875"/><stop stop-opacity="1" stop-color="rgb(14.517212%, 13.711548%, 14.86969%)" offset="0.972656"/><stop stop-opacity="1" stop-color="rgb(14.390564%, 13.479614%, 14.505005%)" offset="0.976562"/><stop stop-opacity="1" stop-color="rgb(14.265442%, 13.246155%, 14.14032%)" offset="0.980469"/><stop stop-opacity="1" stop-color="rgb(14.138794%, 13.014221%, 13.775635%)" offset="0.984375"/><stop stop-opacity="1" stop-color="rgb(14.013672%, 12.780762%, 13.41095%)" offset="0.988281"/><stop stop-opacity="1" stop-color="rgb(13.887024%, 12.547302%, 13.046265%)" offset="0.992188"/><stop stop-opacity="1" stop-color="rgb(13.761902%, 12.315369%, 12.68158%)" offset="0.996094"/><stop stop-opacity="1" stop-color="rgb(13.699341%, 12.199402%, 12.5%)" offset="1"/></radialGradient></defs><g clip-path="url(#30b63eb125)"><g clip-path="url(#9f1e00012e)"><path fill="url(#b9b4ebae37)" d="M 0 13.464844 L 0 41.140625 L 52.003906 41.140625 L 52.003906 13.464844 Z M 0 13.464844 " fill-rule="nonzero"/></g></g><path fill="#6181b6" d="M 51.472656 27.304688 C 51.472656 27.722656 51.433594 28.140625 51.351562 28.558594 C 51.273438 28.976562 51.152344 29.390625 50.988281 29.800781 C 50.828125 30.214844 50.628906 30.621094 50.386719 31.023438 C 50.148438 31.421875 49.871094 31.816406 49.554688 32.207031 C 49.238281 32.59375 48.886719 32.972656 48.496094 33.339844 C 48.105469 33.710938 47.683594 34.070312 47.222656 34.417969 C 46.765625 34.769531 46.273438 35.105469 45.75 35.429688 C 45.226562 35.753906 44.671875 36.0625 44.085938 36.359375 C 43.503906 36.65625 42.890625 36.9375 42.253906 37.203125 C 41.613281 37.472656 40.949219 37.71875 40.265625 37.953125 C 39.578125 38.1875 38.871094 38.402344 38.140625 38.601562 C 37.414062 38.796875 36.667969 38.976562 35.902344 39.136719 C 35.140625 39.296875 34.363281 39.4375 33.574219 39.5625 C 32.78125 39.683594 31.980469 39.785156 31.171875 39.867188 C 30.359375 39.949219 29.542969 40.007812 28.722656 40.050781 C 27.898438 40.089844 27.074219 40.113281 26.25 40.113281 C 25.425781 40.113281 24.601562 40.089844 23.777344 40.050781 C 22.957031 40.007812 22.140625 39.949219 21.328125 39.867188 C 20.519531 39.785156 19.71875 39.683594 18.925781 39.5625 C 18.136719 39.4375 17.359375 39.296875 16.597656 39.136719 C 15.832031 38.976562 15.085938 38.796875 14.359375 38.601562 C 13.628906 38.402344 12.921875 38.1875 12.234375 37.953125 C 11.550781 37.71875 10.886719 37.472656 10.246094 37.203125 C 9.609375 36.9375 8.996094 36.65625 8.414062 36.359375 C 7.828125 36.0625 7.273438 35.753906 6.75 35.429688 C 6.226562 35.105469 5.734375 34.769531 5.277344 34.417969 C 4.816406 34.070312 4.394531 33.710938 4.003906 33.339844 C 3.613281 32.972656 3.261719 32.59375 2.945312 32.207031 C 2.628906 31.816406 2.351562 31.421875 2.113281 31.023438 C 1.871094 30.621094 1.671875 30.214844 1.511719 29.800781 C 1.347656 29.390625 1.226562 28.976562 1.148438 28.558594 C 1.066406 28.140625 1.027344 27.722656 1.027344 27.304688 C 1.027344 26.882812 1.066406 26.464844 1.148438 26.046875 C 1.226562 25.628906 1.347656 25.214844 1.511719 24.804688 C 1.671875 24.394531 1.871094 23.988281 2.113281 23.585938 C 2.351562 23.183594 2.628906 22.789062 2.945312 22.402344 C 3.261719 22.015625 3.613281 21.636719 4.003906 21.265625 C 4.394531 20.894531 4.816406 20.535156 5.277344 20.1875 C 5.734375 19.839844 6.226562 19.503906 6.75 19.175781 C 7.273438 18.851562 7.828125 18.542969 8.414062 18.246094 C 8.996094 17.949219 9.609375 17.667969 10.246094 17.402344 C 10.886719 17.136719 11.550781 16.886719 12.234375 16.652344 C 12.921875 16.421875 13.628906 16.203125 14.359375 16.007812 C 15.085938 15.808594 15.832031 15.628906 16.597656 15.46875 C 17.359375 15.308594 18.136719 15.167969 18.925781 15.046875 C 19.71875 14.925781 20.519531 14.824219 21.328125 14.742188 C 22.140625 14.660156 22.957031 14.597656 23.777344 14.554688 C 24.601562 14.515625 25.425781 14.496094 26.25 14.496094 C 27.074219 14.496094 27.898438 14.515625 28.722656 14.554688 C 29.542969 14.597656 30.359375 14.660156 31.171875 14.742188 C 31.980469 14.824219 32.78125 14.925781 33.574219 15.046875 C 34.363281 15.167969 35.140625 15.308594 35.902344 15.46875 C 36.667969 15.628906 37.414062 15.808594 38.140625 16.007812 C 38.871094 16.203125 39.578125 16.421875 40.265625 16.652344 C 40.949219 16.886719 41.613281 17.136719 42.253906 17.402344 C 42.890625 17.667969 43.503906 17.949219 44.085938 18.246094 C 44.671875 18.542969 45.226562 18.851562 45.75 19.175781 C 46.273438 19.503906 46.765625 19.839844 47.222656 20.1875 C 47.683594 20.535156 48.105469 20.894531 48.496094 21.265625 C 48.886719 21.636719 49.238281 22.015625 49.554688 22.402344 C 49.871094 22.789062 50.148438 23.183594 50.386719 23.585938 C 50.628906 23.988281 50.828125 24.394531 50.988281 24.804688 C 51.152344 25.214844 51.273438 25.628906 51.351562 26.046875 C 51.433594 26.464844 51.472656 26.882812 51.472656 27.304688 Z M 51.472656 27.304688 " fill-opacity="1" fill-rule="nonzero"/><path fill="#ffffff" d="M 31.355469 31.457031 L 32.605469 25 C 32.894531 23.542969 32.648438 22.453125 31.910156 21.773438 C 31.191406 21.113281 29.960938 20.785156 28.15625 20.785156 L 25.984375 20.785156 L 26.597656 17.578125 C 26.621094 17.457031 26.597656 17.332031 26.515625 17.230469 C 26.433594 17.125 26.332031 17.085938 26.210938 17.085938 L 23.214844 17.085938 C 23.011719 17.085938 22.847656 17.230469 22.804688 17.414062 L 21.472656 24.261719 C 21.347656 23.480469 21.0625 22.820312 20.570312 22.285156 C 19.6875 21.28125 18.3125 20.765625 16.449219 20.765625 L 10.683594 20.765625 C 10.480469 20.765625 10.316406 20.910156 10.273438 21.09375 L 7.589844 34.992188 C 7.566406 35.117188 7.589844 35.238281 7.671875 35.34375 C 7.753906 35.445312 7.855469 35.488281 7.976562 35.488281 L 10.992188 35.488281 C 11.199219 35.488281 11.363281 35.34375 11.402344 35.15625 L 12.058594 31.804688 L 14.292969 31.804688 C 15.464844 31.804688 16.46875 31.683594 17.226562 31.4375 C 18.027344 31.167969 18.746094 30.738281 19.378906 30.140625 C 19.894531 29.667969 20.324219 29.132812 20.652344 28.558594 L 20.117188 31.332031 C 20.097656 31.457031 20.117188 31.578125 20.199219 31.683594 C 20.28125 31.785156 20.386719 31.828125 20.507812 31.828125 L 23.503906 31.828125 C 23.707031 31.828125 23.871094 31.683594 23.914062 31.496094 L 25.390625 23.890625 L 27.441406 23.890625 C 28.320312 23.890625 28.566406 24.054688 28.648438 24.136719 C 28.710938 24.199219 28.832031 24.445312 28.691406 25.207031 L 27.5 31.355469 C 27.480469 31.476562 27.5 31.601562 27.582031 31.703125 C 27.664062 31.804688 27.765625 31.847656 27.890625 31.847656 L 30.964844 31.847656 C 31.152344 31.785156 31.316406 31.640625 31.355469 31.457031 Z M 17.492188 26.109375 C 17.308594 27.078125 16.960938 27.777344 16.445312 28.167969 C 15.933594 28.558594 15.09375 28.761719 13.984375 28.761719 L 12.652344 28.761719 L 13.617188 23.789062 L 15.339844 23.789062 C 16.609375 23.789062 17.125 24.054688 17.328125 24.28125 C 17.59375 24.609375 17.65625 25.246094 17.492188 26.109375 Z M 17.492188 26.109375 " fill-opacity="1" fill-rule="nonzero"/><path fill="#ffffff" d="M 44.152344 22.285156 C 43.269531 21.28125 41.898438 20.765625 40.03125 20.765625 L 34.226562 20.765625 C 34.023438 20.765625 33.859375 20.910156 33.816406 21.09375 L 31.128906 34.972656 C 31.109375 35.097656 31.128906 35.21875 31.210938 35.320312 C 31.292969 35.425781 31.398438 35.464844 31.519531 35.464844 L 34.535156 35.464844 C 34.738281 35.464844 34.902344 35.320312 34.945312 35.136719 L 35.601562 31.785156 L 37.835938 31.785156 C 39.003906 31.785156 40.011719 31.664062 40.769531 31.414062 C 41.570312 31.148438 42.285156 30.714844 42.921875 30.121094 C 43.457031 29.625 43.90625 29.070312 44.234375 28.476562 C 44.5625 27.878906 44.808594 27.222656 44.953125 26.5 C 45.300781 24.714844 45.035156 23.316406 44.152344 22.285156 Z M 41.015625 26.109375 C 40.832031 27.078125 40.480469 27.777344 39.96875 28.167969 C 39.457031 28.558594 38.617188 28.761719 37.507812 28.761719 L 36.175781 28.761719 L 37.140625 23.789062 L 38.863281 23.789062 C 40.132812 23.789062 40.644531 24.054688 40.851562 24.28125 C 41.136719 24.609375 41.199219 25.246094 41.015625 26.109375 Z M 41.015625 26.109375 " fill-opacity="1" fill-rule="nonzero"/><path fill="#000004" d="M 15.339844 23.375 C 16.488281 23.375 17.246094 23.582031 17.636719 24.015625 C 18.027344 24.445312 18.109375 25.164062 17.902344 26.191406 C 17.699219 27.261719 17.289062 28.042969 16.691406 28.496094 C 16.097656 28.949219 15.195312 29.175781 13.988281 29.175781 L 12.160156 29.175781 L 13.289062 23.375 Z M 8 35.054688 L 11.011719 35.054688 L 11.730469 31.375 L 14.3125 31.375 C 15.460938 31.375 16.386719 31.25 17.125 31.003906 C 17.863281 30.757812 18.519531 30.367188 19.132812 29.792969 C 19.644531 29.320312 20.054688 28.804688 20.363281 28.25 C 20.671875 27.695312 20.898438 27.078125 21.019531 26.398438 C 21.347656 24.753906 21.101562 23.480469 20.300781 22.554688 C 19.503906 21.628906 18.230469 21.175781 16.488281 21.175781 L 10.683594 21.175781 L 7.996094 35.054688 Z M 8 35.054688 " fill-opacity="1" fill-rule="nonzero"/><path fill="#000004" d="M 23.234375 17.496094 L 26.230469 17.496094 L 25.511719 21.175781 L 28.175781 21.175781 C 29.859375 21.175781 31.007812 21.464844 31.644531 22.0625 C 32.277344 22.65625 32.464844 23.601562 32.21875 24.917969 L 30.964844 31.375 L 27.929688 31.375 L 29.121094 25.226562 C 29.265625 24.527344 29.203125 24.054688 28.976562 23.808594 C 28.75 23.5625 28.238281 23.417969 27.480469 23.417969 L 25.082031 23.417969 L 23.542969 31.375 L 20.546875 31.375 Z M 23.234375 17.496094 " fill-opacity="1" fill-rule="nonzero"/><path fill="#000004" d="M 38.863281 23.375 C 40.011719 23.375 40.769531 23.582031 41.160156 24.015625 C 41.546875 24.445312 41.628906 25.164062 41.425781 26.191406 C 41.21875 27.261719 40.808594 28.042969 40.214844 28.496094 C 39.621094 28.949219 38.71875 29.175781 37.507812 29.175781 L 35.683594 29.175781 L 36.8125 23.375 Z M 31.519531 35.054688 L 34.535156 35.054688 L 35.253906 31.375 L 37.835938 31.375 C 38.984375 31.375 39.90625 31.25 40.644531 31.003906 C 41.382812 30.757812 42.039062 30.367188 42.65625 29.792969 C 43.167969 29.320312 43.578125 28.804688 43.886719 28.25 C 44.195312 27.695312 44.417969 27.078125 44.542969 26.398438 C 44.871094 24.753906 44.625 23.480469 43.824219 22.554688 C 43.023438 21.628906 41.753906 21.175781 40.011719 21.175781 L 34.207031 21.175781 Z M 31.519531 35.054688 " fill-opacity="1" fill-rule="nonzero"/></svg>