<svg xmlns="http://www.w3.org/2000/svg" xmlns:xlink="http://www.w3.org/1999/xlink" width="70" zoomAndPan="magnify" viewBox="0 0 52.5 52.499999" height="70" preserveAspectRatio="xMidYMid meet" version="1.0"><defs><clipPath id="d15c2666b4"><path d="M 14 13 L 52.003906 13 L 52.003906 52.003906 L 14 52.003906 Z M 14 13 " clip-rule="nonzero"/></clipPath></defs><g clip-path="url(#d15c2666b4)"><path fill="#f2bb30" d="M 44.9375 38.558594 C 48.535156 38.558594 49.867188 36.050781 51.117188 32.285156 C 52.414062 28.410156 52.355469 24.679688 51.117188 19.714844 C 50.226562 16.140625 48.539062 13.441406 44.9375 13.441406 L 40.296875 13.441406 L 40.296875 18.933594 C 40.296875 23.191406 36.683594 26.78125 32.566406 26.78125 L 20.203125 26.78125 C 16.824219 26.78125 14.023438 29.671875 14.023438 33.0625 L 14.023438 44.847656 C 14.023438 48.203125 16.941406 50.171875 20.203125 51.132812 C 24.117188 52.277344 27.878906 52.484375 32.566406 51.132812 C 35.679688 50.230469 38.746094 48.410156 38.746094 44.847656 L 38.746094 40.136719 L 26.394531 40.136719 L 26.394531 38.5625 L 44.9375 38.5625 Z M 33.339844 43.273438 C 34.625 43.273438 35.667969 44.328125 35.667969 45.625 C 35.667969 46.933594 34.625 47.984375 33.339844 47.984375 C 32.066406 47.984375 31.015625 46.917969 31.015625 45.625 C 31.027344 44.3125 32.070312 43.273438 33.339844 43.273438 Z M 33.339844 43.273438 " fill-opacity="1" fill-rule="nonzero"/></g><path fill="#35668f" d="M 7.65625 38.5625 L 11.90625 38.5625 L 11.90625 32.914062 C 11.90625 28.828125 15.433594 25.226562 19.632812 25.226562 L 31.996094 25.226562 C 35.433594 25.226562 38.175781 22.390625 38.175781 18.941406 L 38.175781 7.148438 C 38.175781 3.792969 35.351562 1.277344 31.996094 0.714844 C 27.851562 0.03125 23.347656 0.0703125 19.632812 0.726562 L 19.636719 0.726562 C 14.402344 1.652344 13.457031 3.582031 13.457031 7.15625 L 13.457031 11.871094 L 25.832031 11.871094 L 25.832031 13.445312 L 8.816406 13.445312 C 5.214844 13.445312 2.066406 15.609375 1.085938 19.71875 C -0.0507812 24.429688 -0.09375 27.367188 1.085938 32.289062 C 1.960938 35.945312 4.058594 38.5625 7.65625 38.5625 Z M 18.859375 8.722656 C 17.578125 8.722656 16.535156 7.667969 16.535156 6.371094 C 16.550781 5.0625 17.578125 4.011719 18.859375 4.011719 C 20.136719 4.011719 21.1875 5.074219 21.1875 6.371094 C 21.1875 7.667969 20.148438 8.722656 18.859375 8.722656 Z M 18.859375 8.722656 " fill-opacity="1" fill-rule="nonzero"/></svg>