<svg xmlns="http://www.w3.org/2000/svg" xmlns:xlink="http://www.w3.org/1999/xlink" width="70" zoomAndPan="magnify" viewBox="0 0 52.5 52.499999" height="70" preserveAspectRatio="xMidYMid meet" version="1.0"><defs><clipPath id="0488d9b421"><path d="M 0.464844 3 L 52.003906 3 L 52.003906 49 L 0.464844 49 Z M 0.464844 3 " clip-rule="nonzero"/></clipPath></defs><path fill="#53c1de" d="M 30.96875 26.140625 C 30.96875 26.441406 30.941406 26.742188 30.882812 27.039062 C 30.820312 27.335938 30.734375 27.625 30.617188 27.90625 C 30.5 28.183594 30.359375 28.453125 30.191406 28.703125 C 30.019531 28.953125 29.828125 29.1875 29.613281 29.402344 C 29.398438 29.617188 29.164062 29.808594 28.914062 29.976562 C 28.660156 30.144531 28.394531 30.285156 28.113281 30.402344 C 27.832031 30.519531 27.542969 30.605469 27.242188 30.664062 C 26.945312 30.722656 26.644531 30.753906 26.339844 30.753906 C 26.035156 30.753906 25.734375 30.722656 25.4375 30.664062 C 25.140625 30.605469 24.851562 30.519531 24.570312 30.402344 C 24.289062 30.285156 24.019531 30.144531 23.769531 29.976562 C 23.515625 29.808594 23.28125 29.617188 23.066406 29.402344 C 22.851562 29.1875 22.660156 28.953125 22.492188 28.703125 C 22.324219 28.453125 22.179688 28.183594 22.0625 27.90625 C 21.945312 27.625 21.859375 27.335938 21.800781 27.039062 C 21.742188 26.742188 21.710938 26.441406 21.710938 26.140625 C 21.710938 25.835938 21.742188 25.539062 21.800781 25.242188 C 21.859375 24.945312 21.945312 24.65625 22.0625 24.375 C 22.179688 24.09375 22.324219 23.828125 22.492188 23.578125 C 22.660156 23.324219 22.851562 23.09375 23.066406 22.878906 C 23.28125 22.664062 23.515625 22.472656 23.769531 22.304688 C 24.019531 22.136719 24.289062 21.996094 24.570312 21.878906 C 24.851562 21.761719 25.140625 21.675781 25.4375 21.617188 C 25.734375 21.558594 26.035156 21.527344 26.339844 21.527344 C 26.644531 21.527344 26.945312 21.558594 27.242188 21.617188 C 27.542969 21.675781 27.832031 21.761719 28.113281 21.878906 C 28.394531 21.996094 28.660156 22.136719 28.914062 22.304688 C 29.164062 22.472656 29.398438 22.664062 29.613281 22.878906 C 29.828125 23.09375 30.019531 23.324219 30.191406 23.578125 C 30.359375 23.828125 30.5 24.09375 30.617188 24.375 C 30.734375 24.65625 30.820312 24.945312 30.882812 25.242188 C 30.941406 25.539062 30.96875 25.835938 30.96875 26.140625 Z M 30.96875 26.140625 " fill-opacity="1" fill-rule="nonzero"/><g clip-path="url(#0488d9b421)"><path fill="#53c1de" d="M 10.199219 34.308594 C 10.652344 34.460938 11.109375 34.613281 11.574219 34.742188 C 11.421875 35.347656 11.292969 35.941406 11.167969 36.554688 C 10.109375 42.144531 10.9375 46.578125 13.585938 48.097656 C 16.3125 49.667969 20.902344 48.054688 25.371094 44.160156 C 25.722656 43.847656 26.078125 43.527344 26.429688 43.183594 C 26.875 43.617188 27.339844 44.027344 27.804688 44.429688 C 32.128906 48.136719 36.40625 49.636719 39.046875 48.117188 C 41.773438 46.546875 42.664062 41.78125 41.511719 35.980469 C 41.421875 35.539062 41.320312 35.085938 41.207031 34.621094 C 41.53125 34.53125 41.84375 34.429688 42.160156 34.332031 C 47.992188 32.40625 52.214844 29.292969 52.214844 26.101562 C 52.214844 23.050781 48.234375 20.089844 42.734375 18.207031 L 42.734375 18.203125 C 42.1875 18.023438 41.644531 17.851562 41.097656 17.691406 C 41.1875 17.320312 41.269531 16.945312 41.351562 16.574219 C 42.59375 10.570312 41.773438 5.75 39.015625 4.15625 C 36.355469 2.636719 32.019531 4.21875 27.632812 8.023438 C 27.199219 8.398438 26.777344 8.789062 26.371094 9.183594 C 26.097656 8.921875 25.8125 8.660156 25.53125 8.40625 C 20.933594 4.339844 16.324219 2.625 13.566406 4.230469 C 10.917969 5.761719 10.128906 10.300781 11.242188 15.976562 C 11.351562 16.542969 11.472656 17.09375 11.613281 17.660156 C 10.964844 17.839844 10.332031 18.042969 9.734375 18.253906 C 4.335938 20.117188 0.464844 23.058594 0.464844 26.101562 C 0.464844 29.246094 4.589844 32.394531 10.199219 34.308594 Z M 23.945312 42.511719 C 22.277344 44.035156 20.347656 45.242188 18.242188 46.070312 C 17.121094 46.601562 15.828125 46.652344 14.675781 46.199219 C 13.070312 45.273438 12.402344 41.71875 13.308594 36.933594 C 13.421875 36.371094 13.542969 35.804688 13.683594 35.253906 C 15.949219 35.734375 18.230469 36.066406 20.546875 36.238281 C 21.882812 38.121094 23.34375 39.925781 24.914062 41.617188 C 24.589844 41.925781 24.265625 42.230469 23.941406 42.511719 Z M 36.78125 23.601562 C 36.308594 22.714844 35.820312 21.832031 35.316406 20.964844 C 34.820312 20.109375 34.304688 19.261719 33.769531 18.425781 C 35.398438 18.628906 36.953125 18.898438 38.410156 19.234375 C 37.941406 20.722656 37.398438 22.175781 36.78125 23.601562 Z M 36.800781 28.617188 C 37.449219 30.078125 38.015625 31.558594 38.507812 33.078125 C 36.941406 33.433594 35.355469 33.703125 33.757812 33.886719 C 34.304688 33.039062 34.820312 32.171875 35.324219 31.308594 C 35.839844 30.421875 36.324219 29.523438 36.800781 28.617188 Z M 35.632812 26.113281 C 34.953125 27.503906 34.226562 28.871094 33.449219 30.21875 C 32.683594 31.558594 31.863281 32.859375 31.003906 34.148438 C 29.5 34.257812 27.933594 34.308594 26.34375 34.308594 C 24.757812 34.308594 23.222656 34.257812 21.738281 34.167969 C 20.855469 32.886719 20.027344 31.578125 19.25 30.238281 C 18.472656 28.902344 17.753906 27.542969 17.078125 26.152344 L 17.074219 26.152344 C 17.738281 24.761719 18.46875 23.402344 19.234375 22.0625 C 20.003906 20.722656 20.832031 19.425781 21.703125 18.144531 C 23.21875 18.035156 24.765625 17.972656 26.34375 17.972656 C 27.921875 17.972656 29.476562 18.035156 30.984375 18.144531 C 31.839844 19.414062 32.660156 20.714844 33.4375 22.042969 C 34.21875 23.375 34.945312 24.734375 35.632812 26.113281 Z M 17.351562 20.984375 C 16.855469 21.839844 16.371094 22.714844 15.917969 23.601562 C 15.28125 22.101562 14.746094 20.632812 14.300781 19.210938 C 15.753906 18.890625 17.300781 18.628906 18.90625 18.425781 C 18.375 19.261719 17.847656 20.117188 17.351562 20.984375 Z M 15.917969 28.695312 C 16.386719 29.585938 16.859375 30.460938 17.363281 31.328125 C 17.878906 32.203125 18.40625 33.078125 18.960938 33.933594 C 17.386719 33.761719 15.816406 33.511719 14.273438 33.179688 C 14.714844 31.726562 15.273438 30.230469 15.917969 28.695312 Z M 26.421875 40.0625 C 25.390625 38.957031 24.359375 37.730469 23.359375 36.410156 C 24.332031 36.449219 25.332031 36.46875 26.34375 36.46875 C 27.382812 36.46875 28.402344 36.449219 29.414062 36.398438 C 28.484375 37.675781 27.484375 38.898438 26.421875 40.0625 Z M 39.632812 43.089844 C 39.542969 44.316406 38.933594 45.464844 37.964844 46.238281 C 36.359375 47.164062 32.933594 45.957031 29.230469 42.796875 C 28.808594 42.433594 28.382812 42.039062 27.949219 41.636719 C 29.496094 39.933594 30.921875 38.132812 32.214844 36.238281 C 34.527344 36.050781 36.832031 35.695312 39.109375 35.183594 C 39.210938 35.59375 39.300781 36.007812 39.382812 36.410156 C 39.878906 38.589844 39.957031 40.851562 39.632812 43.089844 Z M 40.511719 19.765625 C 41.039062 19.917969 41.542969 20.078125 42.027344 20.238281 C 46.738281 21.851562 50.042969 24.246094 50.042969 26.082031 C 50.042969 28.054688 46.515625 30.601562 41.472656 32.261719 C 41.1875 32.355469 40.90625 32.445312 40.613281 32.527344 C 39.90625 30.328125 39.035156 28.1875 38.035156 26.097656 C 39.007812 24.046875 39.824219 21.929688 40.511719 19.765625 Z M 29.058594 9.65625 C 32.820312 6.394531 36.324219 5.117188 37.925781 6.03125 C 39.632812 7.007812 40.289062 10.957031 39.21875 16.140625 C 39.148438 16.484375 39.074219 16.816406 38.984375 17.148438 C 36.738281 16.644531 34.46875 16.285156 32.183594 16.082031 C 30.867188 14.207031 29.433594 12.414062 27.875 10.730469 C 28.269531 10.359375 28.652344 10.007812 29.058594 9.65625 Z M 26.363281 12.273438 C 27.421875 13.421875 28.421875 14.628906 29.351562 15.878906 C 27.351562 15.789062 25.339844 15.789062 23.339844 15.878906 C 24.328125 14.578125 25.351562 13.371094 26.363281 12.273438 Z M 14.636719 6.101562 C 16.335938 5.117188 20.105469 6.523438 24.078125 10.03125 C 24.328125 10.25 24.582031 10.492188 24.84375 10.734375 C 23.277344 12.414062 21.832031 14.207031 20.507812 16.078125 C 18.222656 16.28125 15.960938 16.632812 13.714844 17.128906 C 13.585938 16.613281 13.472656 16.089844 13.363281 15.566406 C 12.410156 10.691406 13.039062 7.015625 14.636719 6.101562 Z M 10.441406 20.296875 C 11.019531 20.097656 11.605469 19.917969 12.191406 19.746094 C 12.878906 21.929688 13.707031 24.074219 14.667969 26.148438 C 13.695312 28.253906 12.859375 30.429688 12.160156 32.644531 C 11.734375 32.527344 11.320312 32.394531 10.90625 32.253906 C 8.753906 31.578125 6.308594 30.511719 4.539062 29.113281 C 3.519531 28.40625 2.832031 27.320312 2.640625 26.097656 C 2.640625 24.257812 5.832031 21.898438 10.441406 20.296875 Z M 10.441406 20.296875 " fill-opacity="1" fill-rule="nonzero"/></g></svg>