<svg xmlns="http://www.w3.org/2000/svg" xmlns:xlink="http://www.w3.org/1999/xlink" width="70" zoomAndPan="magnify" viewBox="0 0 52.5 52.499999" height="70" preserveAspectRatio="xMidYMid meet" version="1.0"><defs><clipPath id="65e2e0f4d8"><path d="M 0 7 L 52.003906 7 L 52.003906 48 L 0 48 Z M 0 7 " clip-rule="nonzero"/></clipPath></defs><g clip-path="url(#65e2e0f4d8)"><path fill="#f06292" d="M 45.113281 30.503906 C 43.289062 30.515625 41.710938 30.953125 40.390625 31.613281 C 39.90625 30.640625 39.414062 29.785156 39.332031 29.148438 C 39.238281 28.40625 39.125 27.960938 39.242188 27.078125 C 39.359375 26.195312 39.867188 24.941406 39.859375 24.847656 C 39.851562 24.753906 39.746094 24.304688 38.695312 24.296875 C 37.644531 24.289062 36.742188 24.5 36.636719 24.777344 C 36.53125 25.058594 36.332031 25.6875 36.203125 26.34375 C 36.019531 27.300781 34.105469 30.722656 33.019531 32.511719 C 32.664062 31.8125 32.363281 31.199219 32.296875 30.710938 C 32.203125 29.96875 32.089844 29.527344 32.207031 28.644531 C 32.324219 27.757812 32.832031 26.507812 32.824219 26.414062 C 32.816406 26.316406 32.710938 25.867188 31.660156 25.859375 C 30.609375 25.851562 29.710938 26.0625 29.605469 26.34375 C 29.5 26.621094 29.382812 27.273438 29.171875 27.90625 C 28.953125 28.539062 26.410156 34.246094 25.742188 35.726562 C 25.402344 36.480469 25.109375 37.085938 24.898438 37.496094 C 24.898438 37.496094 24.882812 37.523438 24.863281 37.570312 C 24.683594 37.921875 24.578125 38.117188 24.578125 38.117188 C 24.578125 38.117188 24.582031 38.117188 24.582031 38.121094 C 24.441406 38.382812 24.289062 38.621094 24.214844 38.621094 C 24.160156 38.621094 24.054688 37.933594 24.238281 36.988281 C 24.617188 35.007812 25.523438 31.921875 25.515625 31.8125 C 25.511719 31.757812 25.6875 31.222656 24.921875 30.941406 C 24.179688 30.667969 23.917969 31.121094 23.847656 31.125 C 23.785156 31.125 23.734375 31.285156 23.734375 31.285156 C 23.734375 31.285156 24.5625 27.8125 22.160156 27.8125 C 20.65625 27.8125 18.574219 29.464844 17.550781 30.964844 C 16.902344 31.320312 15.519531 32.082031 14.050781 32.894531 C 13.484375 33.207031 12.910156 33.527344 12.363281 33.828125 C 12.328125 33.785156 12.289062 33.746094 12.25 33.703125 C 9.335938 30.574219 3.949219 28.363281 4.179688 24.15625 C 4.261719 22.628906 4.789062 18.601562 14.527344 13.71875 C 22.503906 9.71875 28.890625 10.816406 29.996094 13.257812 C 31.570312 16.742188 26.582031 23.222656 18.296875 24.15625 C 15.140625 24.511719 13.480469 23.28125 13.066406 22.824219 C 12.628906 22.339844 12.566406 22.320312 12.402344 22.410156 C 12.140625 22.558594 12.304688 22.984375 12.402344 23.238281 C 12.652344 23.882812 13.664062 25.035156 15.394531 25.605469 C 16.917969 26.109375 20.625 26.382812 25.105469 24.640625 C 30.125 22.6875 34.042969 17.25 32.890625 12.707031 C 31.722656 8.085938 24.109375 6.566406 16.902344 9.140625 C 12.609375 10.675781 7.96875 13.082031 4.628906 16.226562 C 0.660156 19.960938 0.0273438 23.214844 0.289062 24.570312 C 1.214844 29.398438 7.828125 32.542969 10.472656 34.875 C 10.34375 34.945312 10.21875 35.015625 10.109375 35.078125 C 8.78125 35.738281 3.742188 38.390625 2.480469 41.195312 C 1.050781 44.378906 2.707031 46.660156 3.804688 46.96875 C 7.207031 47.917969 10.695312 46.207031 12.570312 43.390625 C 14.445312 40.578125 14.214844 36.914062 13.355469 35.242188 C 13.34375 35.21875 13.332031 35.199219 13.324219 35.179688 C 13.664062 34.976562 14.015625 34.765625 14.359375 34.5625 C 15.035156 34.164062 15.699219 33.789062 16.273438 33.476562 C 15.953125 34.363281 15.71875 35.429688 15.59375 36.964844 C 15.449219 38.769531 16.1875 41.105469 17.148438 42.023438 C 17.574219 42.429688 18.082031 42.4375 18.40625 42.4375 C 19.523438 42.4375 20.035156 41.5 20.597656 40.390625 C 21.289062 39.03125 21.902344 37.449219 21.902344 37.449219 C 21.902344 37.449219 21.132812 41.726562 23.226562 41.726562 C 23.988281 41.726562 24.753906 40.730469 25.097656 40.222656 C 25.097656 40.226562 25.097656 40.230469 25.097656 40.230469 C 25.097656 40.230469 25.121094 40.195312 25.160156 40.132812 C 25.238281 40.007812 25.28125 39.933594 25.28125 39.933594 C 25.28125 39.933594 25.285156 39.921875 25.285156 39.910156 C 25.59375 39.375 26.273438 38.152344 27.292969 36.136719 C 28.609375 33.535156 29.875 30.273438 29.875 30.273438 C 29.875 30.273438 29.992188 31.070312 30.375 32.390625 C 30.601562 33.164062 31.085938 34.023438 31.464844 34.847656 C 31.160156 35.273438 30.972656 35.519531 30.972656 35.519531 C 30.972656 35.519531 30.972656 35.523438 30.976562 35.53125 C 30.730469 35.859375 30.457031 36.210938 30.171875 36.554688 C 29.132812 37.800781 27.890625 39.222656 27.726562 39.632812 C 27.53125 40.117188 27.578125 40.472656 27.957031 40.761719 C 28.230469 40.96875 28.722656 41.003906 29.234375 40.96875 C 30.171875 40.90625 30.828125 40.671875 31.152344 40.53125 C 31.65625 40.347656 32.246094 40.066406 32.800781 39.65625 C 33.820312 38.902344 34.433594 37.824219 34.375 36.390625 C 34.34375 35.601562 34.09375 34.820312 33.777344 34.085938 C 33.867188 33.953125 33.960938 33.816406 34.054688 33.679688 C 35.664062 31.3125 36.910156 28.714844 36.910156 28.714844 C 36.910156 28.714844 37.027344 29.507812 37.414062 30.828125 C 37.609375 31.496094 37.992188 32.222656 38.339844 32.9375 C 36.828125 34.175781 35.890625 35.613281 35.5625 36.554688 C 34.960938 38.296875 35.433594 39.085938 36.316406 39.269531 C 36.71875 39.347656 37.285156 39.164062 37.710938 38.984375 C 38.238281 38.804688 38.875 38.511719 39.472656 38.070312 C 40.492188 37.316406 41.472656 36.257812 41.414062 34.828125 C 41.386719 34.179688 41.210938 33.53125 40.972656 32.910156 C 42.253906 32.375 43.914062 32.074219 46.027344 32.324219 C 50.5625 32.855469 51.453125 35.707031 51.28125 36.898438 C 51.113281 38.089844 50.160156 38.746094 49.84375 38.945312 C 49.523438 39.144531 49.429688 39.210938 49.453125 39.359375 C 49.492188 39.574219 49.640625 39.566406 49.910156 39.519531 C 50.285156 39.457031 52.292969 38.550781 52.378906 36.347656 C 52.488281 33.550781 49.828125 30.480469 45.113281 30.503906 Z M 10.15625 42.367188 C 8.652344 44.015625 6.554688 44.636719 5.65625 44.113281 C 4.683594 43.546875 5.070312 41.117188 6.910156 39.367188 C 8.035156 38.300781 9.484375 37.316406 10.449219 36.710938 C 10.667969 36.582031 10.988281 36.386719 11.378906 36.148438 C 11.445312 36.113281 11.480469 36.09375 11.480469 36.09375 L 11.480469 36.089844 C 11.554688 36.042969 11.632812 36 11.710938 35.949219 C 12.382812 38.441406 11.734375 40.632812 10.15625 42.367188 Z M 21.101562 34.878906 C 20.578125 36.160156 19.484375 39.445312 18.816406 39.269531 C 18.242188 39.117188 17.894531 36.621094 18.703125 34.164062 C 19.105469 32.929688 19.976562 31.449219 20.484375 30.875 C 21.304688 29.953125 22.207031 29.652344 22.425781 30.027344 C 22.707031 30.503906 21.429688 34.074219 21.101562 34.878906 Z M 30.140625 39.21875 C 29.921875 39.335938 29.714844 39.410156 29.621094 39.355469 C 29.554688 39.3125 29.714844 39.15625 29.714844 39.15625 C 29.714844 39.15625 30.84375 37.933594 31.289062 37.375 C 31.550781 37.050781 31.847656 36.667969 32.175781 36.238281 C 32.179688 36.28125 32.179688 36.324219 32.179688 36.363281 C 32.179688 37.832031 30.769531 38.820312 30.140625 39.21875 Z M 37.105469 37.621094 C 36.941406 37.503906 36.96875 37.121094 37.511719 35.925781 C 37.726562 35.457031 38.214844 34.667969 39.0625 33.914062 C 39.160156 34.226562 39.21875 34.523438 39.21875 34.800781 C 39.207031 36.644531 37.898438 37.335938 37.105469 37.621094 Z M 37.105469 37.621094 " fill-opacity="1" fill-rule="nonzero"/></g></svg>