<svg xmlns="http://www.w3.org/2000/svg" xmlns:xlink="http://www.w3.org/1999/xlink" width="70" zoomAndPan="magnify" viewBox="0 0 52.5 52.499999" height="70" preserveAspectRatio="xMidYMid meet" version="1.0"><defs><clipPath id="bc18840ee3"><path d="M 2 50 L 3 50 L 3 50.199219 L 2 50.199219 Z M 2 50 " clip-rule="nonzero"/></clipPath><clipPath id="379262e2e8"><path d="M 0 2.199219 L 52.003906 2.199219 L 52.003906 48 L 0 48 Z M 0 2.199219 " clip-rule="nonzero"/></clipPath><clipPath id="1e5fa6fbd0"><path d="M 10 2.199219 L 42 2.199219 L 42 30 L 10 30 Z M 10 2.199219 " clip-rule="nonzero"/></clipPath></defs><g clip-path="url(#bc18840ee3)"><path fill="#000000" d="M 2.246094 50.25 L 2.242188 50.234375 L 2.238281 50.226562 Z M 2.246094 50.25 " fill-opacity="1" fill-rule="nonzero"/></g><g clip-path="url(#379262e2e8)"><path fill="#41b883" d="M 0 2.402344 L 26.25 47.59375 L 52.5 2.402344 L 42 2.402344 L 26.25 29.515625 L 10.367188 2.402344 Z M 0 2.402344 " fill-opacity="1" fill-rule="nonzero"/></g><g clip-path="url(#1e5fa6fbd0)"><path fill="#35495e" d="M 10.367188 2.402344 L 26.25 29.648438 L 42 2.402344 L 32.289062 2.402344 L 26.25 12.878906 L 20.082031 2.402344 Z M 10.367188 2.402344 " fill-opacity="1" fill-rule="nonzero"/></g></svg>