<svg xmlns="http://www.w3.org/2000/svg" xmlns:xlink="http://www.w3.org/1999/xlink" width="1920" zoomAndPan="magnify" viewBox="0 0 1440 809.999993" height="1080" preserveAspectRatio="xMidYMid meet" version="1.0"><defs><g/></defs><g fill="#2b2b2b" fill-opacity="1"><g transform="translate(334.165648, 502.492735)"><g><path d="M 135.8125 4.5625 C 100.050781 4.5625 71.421875 -6.65625 49.921875 -29.09375 C 28.429688 -51.539062 17.6875 -82.359375 17.6875 -121.546875 L 17.6875 -347.53125 C 17.6875 -396.226562 27.382812 -432.941406 46.78125 -457.671875 C 66.1875 -482.398438 96.625 -494.765625 138.09375 -494.765625 C 174.238281 -494.765625 203.34375 -484.867188 225.40625 -465.078125 C 247.46875 -445.296875 258.5 -416.765625 258.5 -379.484375 L 258.5 -295.03125 L 160.921875 -295.03125 L 160.921875 -367.5 C 160.921875 -381.570312 159.207031 -391.269531 155.78125 -396.59375 C 152.363281 -401.925781 146.46875 -404.59375 138.09375 -404.59375 C 129.34375 -404.59375 123.347656 -401.546875 120.109375 -395.453125 C 116.878906 -389.367188 115.265625 -380.429688 115.265625 -368.640625 L 115.265625 -122.6875 C 115.265625 -109.75 117.164062 -100.332031 120.96875 -94.4375 C 124.78125 -88.539062 130.488281 -85.59375 138.09375 -85.59375 C 153.3125 -85.59375 160.921875 -97.957031 160.921875 -122.6875 L 160.921875 -211.140625 L 259.65625 -211.140625 L 259.65625 -118.703125 C 259.65625 -36.523438 218.375 4.5625 135.8125 4.5625 Z M 135.8125 4.5625 "/></g></g></g><g fill="#2b2b2b" fill-opacity="1"><g transform="translate(604.641879, 502.492735)"><g><path d="M 19.96875 -417.71875 L 119.84375 -417.71875 L 119.84375 -371.5 C 124.78125 -387.851562 133.429688 -400.5 145.796875 -409.4375 C 158.160156 -418.382812 173.472656 -422.859375 191.734375 -422.859375 L 191.734375 -339.546875 C 177.660156 -339.546875 162.160156 -337.546875 145.234375 -333.546875 C 128.304688 -329.554688 119.84375 -324.894531 119.84375 -319.5625 L 119.84375 0 L 19.96875 0 Z M 19.96875 -417.71875 "/></g></g></g><g fill="#2b2b2b" fill-opacity="1"><g transform="translate(800.936897, 502.492735)"><g><path d="M 95.875 4.5625 C 63.53125 4.5625 41.363281 -6.179688 29.375 -27.671875 C 17.394531 -49.171875 11.40625 -79.894531 11.40625 -119.84375 C 11.40625 -152.5625 15.6875 -177.671875 24.25 -195.171875 C 32.8125 -212.671875 44.703125 -225.507812 59.921875 -233.6875 C 75.140625 -241.863281 98.34375 -250.898438 129.53125 -260.796875 L 156.9375 -269.921875 L 156.9375 -312.71875 C 156.9375 -323.75 154.75 -332.210938 150.375 -338.109375 C 146 -344.003906 140.765625 -346.953125 134.671875 -346.953125 C 129.347656 -346.953125 124.6875 -344.476562 120.6875 -339.53125 C 116.695312 -334.59375 114.703125 -327.9375 114.703125 -319.5625 L 114.703125 -294.453125 L 17.6875 -294.453125 L 17.6875 -308.15625 C 17.6875 -349.238281 27.289062 -378.53125 46.5 -396.03125 C 65.71875 -413.53125 97.007812 -422.28125 140.375 -422.28125 C 175 -422.28125 203.148438 -413.242188 224.828125 -395.171875 C 246.515625 -377.109375 257.359375 -351.523438 257.359375 -318.421875 L 257.359375 0 L 158.078125 0 L 158.078125 -49.640625 C 153.128906 -32.523438 145.234375 -19.210938 134.390625 -9.703125 C 123.546875 -0.191406 110.707031 4.5625 95.875 4.5625 Z M 135.25 -73.046875 C 142.851562 -73.046875 148.269531 -76.179688 151.5 -82.453125 C 154.738281 -88.734375 156.359375 -96.441406 156.359375 -105.578125 L 156.359375 -221.984375 C 141.523438 -216.273438 130.585938 -209.046875 123.546875 -200.296875 C 116.503906 -191.546875 112.984375 -179.375 112.984375 -163.78125 L 112.984375 -110.140625 C 112.984375 -85.410156 120.40625 -73.046875 135.25 -73.046875 Z M 135.25 -73.046875 "/></g></g></g><g fill="#2b2b2b" fill-opacity="1"><g transform="translate(1076.548827, 502.492735)"><g><path d="M 29.109375 -323.5625 L 11.40625 -323.5625 L 11.984375 -399.453125 L 29.109375 -399.453125 L 29.109375 -428 C 29.109375 -472.882812 51.550781 -495.328125 96.4375 -495.328125 C 117.738281 -495.328125 134.859375 -492.664062 147.796875 -487.34375 L 147.796875 -425.703125 C 143.992188 -426.847656 140.953125 -427.421875 138.671875 -427.421875 C 133.347656 -427.421875 129.921875 -425.519531 128.390625 -421.71875 C 126.867188 -417.914062 126.109375 -412.207031 126.109375 -404.59375 L 126.109375 -399.453125 L 147.796875 -399.453125 L 147.796875 -322.421875 L 128.390625 -322.421875 L 128.390625 0 L 29.109375 0 Z M 29.109375 -323.5625 "/></g></g></g><g fill="#2b2b2b" fill-opacity="1"><g transform="translate(1236.323842, 502.492735)"><g><path d="M 106.140625 4.5625 C 79.890625 4.5625 61.816406 -0.953125 51.921875 -11.984375 C 42.035156 -23.015625 37.09375 -40.707031 37.09375 -65.0625 L 37.09375 -325.84375 L 9.125 -325.84375 L 9.125 -401.734375 L 37.09375 -401.734375 L 37.09375 -490.1875 L 134.109375 -490.1875 L 134.109375 -401.734375 L 162.640625 -401.734375 L 162.640625 -325.84375 L 134.109375 -325.84375 L 134.109375 -91.3125 C 134.109375 -84.082031 134.675781 -78.753906 135.8125 -75.328125 C 136.957031 -71.898438 140.003906 -70.1875 144.953125 -70.1875 C 148.753906 -70.1875 152.363281 -70.375 155.78125 -70.75 C 159.207031 -71.132812 161.492188 -71.328125 162.640625 -71.328125 L 162.640625 -2.859375 C 156.929688 -1.335938 148.65625 0.273438 137.8125 1.984375 C 126.96875 3.703125 116.410156 4.5625 106.140625 4.5625 Z M 106.140625 4.5625 "/></g></g></g></svg>