<svg xmlns="http://www.w3.org/2000/svg" xmlns:xlink="http://www.w3.org/1999/xlink" width="40" zoomAndPan="magnify" viewBox="0 0 30 30.000001" height="40" preserveAspectRatio="xMidYMid meet" version="1.0"><defs><g/><clipPath id="25c61601ed"><path d="M 0.484375 0 L 29.515625 0 L 29.515625 29.03125 L 0.484375 29.03125 Z M 0.484375 0 " clip-rule="nonzero"/></clipPath><clipPath id="36790456be"><path d="M 0.484375 0 L 17 0 L 17 24 L 0.484375 24 Z M 0.484375 0 " clip-rule="nonzero"/></clipPath></defs><g clip-path="url(#25c61601ed)"><path fill="#000000" d="M 7.746094 -0.00390625 C 3.738281 -0.00390625 0.488281 3.246094 0.488281 7.253906 L 0.488281 21.769531 C 0.488281 25.777344 3.738281 29.027344 7.746094 29.027344 L 22.261719 29.027344 C 26.269531 29.027344 29.519531 25.777344 29.519531 21.769531 L 29.519531 7.253906 C 29.519531 3.246094 26.269531 -0.00390625 22.261719 -0.00390625 Z M 7.746094 -0.00390625 " fill-opacity="1" fill-rule="nonzero"/></g><g fill="#48ff00" fill-opacity="1"><g transform="translate(5.083922, 20.530453)"><g><path d="M 4.15625 0.140625 C 3.4375 0.140625 2.785156 0.00390625 2.203125 -0.265625 C 1.628906 -0.546875 1.175781 -0.953125 0.84375 -1.484375 C 0.507812 -2.023438 0.34375 -2.675781 0.34375 -3.4375 L 0.34375 -7.34375 L 3.40625 -7.34375 L 3.40625 -3.625 C 3.40625 -3.34375 3.460938 -3.117188 3.578125 -2.953125 C 3.691406 -2.796875 3.867188 -2.71875 4.109375 -2.71875 C 4.335938 -2.71875 4.507812 -2.789062 4.625 -2.9375 C 4.738281 -3.09375 4.796875 -3.3125 4.796875 -3.59375 L 4.796875 -15.5625 L 7.9375 -15.5625 L 7.9375 -3.890625 C 7.9375 -3.085938 7.773438 -2.378906 7.453125 -1.765625 C 7.140625 -1.160156 6.691406 -0.691406 6.109375 -0.359375 C 5.535156 -0.0234375 4.882812 0.140625 4.15625 0.140625 Z M 4.15625 0.140625 "/></g></g></g><g clip-path="url(#36790456be)"><path stroke-linecap="butt" transform="matrix(1.22663, 0, 0, 1.22663, 4.238951, 0.220135)" fill="none" stroke-linejoin="miter" d="M 3.381435 16.119008 C 2.801849 16.119008 2.273215 16.007549 1.798719 15.781446 C 1.327407 15.55216 0.958 15.217783 0.68413 14.781501 C 0.416629 14.345219 0.279694 13.813401 0.279694 13.195601 L 0.279694 10.017431 L 2.776372 10.017431 L 2.776372 13.045927 C 2.776372 13.27203 2.82414 13.453548 2.916492 13.587299 C 3.012028 13.72105 3.155332 13.78474 3.352774 13.78474 C 3.540662 13.78474 3.680781 13.724234 3.773133 13.603222 C 3.865485 13.47584 3.913253 13.30069 3.913253 13.074588 L 3.913253 3.313976 L 6.470438 3.313976 L 6.470438 12.82301 C 6.470438 13.485394 6.336687 14.06498 6.075555 14.561768 C 5.817607 15.055371 5.451385 15.440701 4.983258 15.711387 C 4.518315 15.982072 3.983313 16.119008 3.381435 16.119008 Z M 3.381435 16.119008 " stroke="#faf200" stroke-width="0.553995" stroke-opacity="1" stroke-miterlimit="4"/></g><g fill="#48ff00" fill-opacity="1"><g transform="translate(15.93114, 23.6096)"><g><path d="M 4.390625 0.140625 C 2.972656 0.140625 1.945312 -0.207031 1.3125 -0.90625 C 0.6875 -1.601562 0.375 -2.734375 0.375 -4.296875 L 0.375 -5.8125 L 3.4375 -5.8125 L 3.4375 -3.875 C 3.4375 -3.101562 3.6875 -2.71875 4.1875 -2.71875 C 4.46875 -2.71875 4.660156 -2.796875 4.765625 -2.953125 C 4.878906 -3.117188 4.9375 -3.394531 4.9375 -3.78125 C 4.9375 -4.289062 4.875 -4.710938 4.75 -5.046875 C 4.625 -5.378906 4.46875 -5.65625 4.28125 -5.875 C 4.09375 -6.101562 3.757812 -6.453125 3.28125 -6.921875 L 1.9375 -8.265625 C 0.894531 -9.273438 0.375 -10.398438 0.375 -11.640625 C 0.375 -12.960938 0.679688 -13.972656 1.296875 -14.671875 C 1.910156 -15.367188 2.800781 -15.71875 3.96875 -15.71875 C 5.375 -15.71875 6.382812 -15.34375 7 -14.59375 C 7.613281 -13.851562 7.921875 -12.691406 7.921875 -11.109375 L 4.75 -11.109375 L 4.734375 -12.1875 C 4.734375 -12.382812 4.675781 -12.539062 4.5625 -12.65625 C 4.445312 -12.78125 4.285156 -12.84375 4.078125 -12.84375 C 3.835938 -12.84375 3.65625 -12.773438 3.53125 -12.640625 C 3.414062 -12.515625 3.359375 -12.335938 3.359375 -12.109375 C 3.359375 -11.597656 3.644531 -11.070312 4.21875 -10.53125 L 6.03125 -8.796875 C 6.457031 -8.378906 6.804688 -7.984375 7.078125 -7.609375 C 7.359375 -7.242188 7.582031 -6.8125 7.75 -6.3125 C 7.925781 -5.8125 8.015625 -5.21875 8.015625 -4.53125 C 8.015625 -3 7.734375 -1.835938 7.171875 -1.046875 C 6.609375 -0.253906 5.679688 0.140625 4.390625 0.140625 Z M 4.390625 0.140625 "/></g></g></g><path stroke-linecap="butt" transform="matrix(1.22663, 0, 0, 1.22663, 14.999999, 4.499666)" fill="none" stroke-linejoin="miter" d="M 3.573053 16.120409 C 2.423435 16.120409 1.589086 15.833801 1.079559 15.263768 C 0.566848 14.693736 0.308901 13.770219 0.308901 12.499588 L 0.308901 11.257618 L 2.805579 11.257618 L 2.805579 12.837149 C 2.805579 13.470873 3.006205 13.786142 3.410642 13.786142 C 3.636744 13.786142 3.795971 13.719267 3.885138 13.588701 C 3.971121 13.451766 4.015704 13.228848 4.015704 12.913578 C 4.015704 12.499588 3.967936 12.158843 3.869216 11.888157 C 3.770495 11.617471 3.643113 11.391369 3.490255 11.206665 C 3.340582 11.025147 3.066712 10.741723 2.671829 10.356393 L 1.579532 9.264097 C 0.732444 8.436116 0.308901 7.522154 0.308901 6.515839 C 0.308901 5.433096 0.560479 4.611485 1.057267 4.047821 C 1.554056 3.477789 2.280131 3.194365 3.235492 3.194365 C 4.375557 3.194365 5.197168 3.496896 5.700326 4.105143 C 6.203483 4.710206 6.455061 5.656014 6.455061 6.945752 L 3.869216 6.945752 L 3.853293 6.073188 C 3.853293 5.907592 3.808709 5.773842 3.713173 5.675121 C 3.620821 5.5764 3.490255 5.528632 3.324659 5.528632 C 3.127218 5.528632 2.980729 5.582769 2.882008 5.691044 C 2.783288 5.799318 2.732335 5.945807 2.732335 6.133695 C 2.732335 6.547685 2.967991 6.974413 3.439303 7.417064 L 4.920113 8.834184 C 5.260859 9.171745 5.547468 9.490199 5.77357 9.789546 C 6.002857 10.092077 6.184375 10.445561 6.321311 10.853182 C 6.458246 11.263987 6.528306 11.748037 6.528306 12.308516 C 6.528306 13.556855 6.299019 14.505848 5.840445 15.152309 C 5.385056 15.795586 4.63032 16.120409 3.573053 16.120409 Z M 3.573053 16.120409 " stroke="#faf200" stroke-width="0.553995" stroke-opacity="1" stroke-miterlimit="4"/></svg>